<svg id="Layer_1" data-name="Layer 1" xmlns="http://www.w3.org/2000/svg" viewBox="0 0 60 49.04"><defs><style>.cls-1{fill:#282345;}</style></defs><title>ladder</title><path class="cls-1" d="M46.54,5.37,49.88,1a.61.61,0,0,0-.49-1H35.5a.61.61,0,0,0-.61.61V17H26.47A2.06,2.06,0,0,0,24.41,19V26.6H14.26a2.06,2.06,0,0,0-2.06,2.06v5.43H2.06A2.06,2.06,0,0,0,0,36.14V48.39A.61.61,0,0,0,.61,49h46a.61.61,0,0,0,.61-.61V17.58a.61.61,0,0,0-.61-.61H36.11V10.73H49.39a.61.61,0,0,0,.49-1ZM3.39,36.14V47.78H1.22V36.14a.84.84,0,0,1,.84-.84H3.57A2,2,0,0,0,3.39,36.14ZM25.63,19a.84.84,0,0,1,.84-.84H28a2,2,0,0,0-.18.84V26.6H25.63ZM13.42,28.65a.84.84,0,0,1,.84-.84h1.52a2,2,0,0,0-.18.84v5.43H13.42ZM46,18.19V47.78H4.61V36.14a.84.84,0,0,1,.84-.84H16.2a.61.61,0,0,0,.61-.61v-6a.84.84,0,0,1,.84-.84H28.41a.61.61,0,0,0,.61-.61V19a.84.84,0,0,1,.84-.84H46Z"/><path class="cls-1" d="M41.12,44.25a2.08,2.08,0,0,0,2.08-2.08V29.91a.61.61,0,0,0-1.22,0V42.17a.86.86,0,0,1-.86.86.61.61,0,0,0,0,1.22Z"/><path class="cls-1" d="M36,44.25h1A.61.61,0,0,0,37,43H36a.61.61,0,0,0,0,1.22Z"/></svg>