<?xml version="1.0" encoding="utf-8"?>
<!-- Generator: Adobe Illustrator 23.1.1, SVG Export Plug-In . SVG Version: 6.00 Build 0)  -->
<svg version="1.1" id="Layer_1" xmlns="http://www.w3.org/2000/svg" xmlns:xlink="http://www.w3.org/1999/xlink" x="0px" y="0px"
	 viewBox="0 0 546.375 383.7070618" style="enable-background:new 0 0 546.375 383.7070618;" xml:space="preserve">
<style type="text/css">
	.st0{fill:#A1C3FC;}
	.st1{fill:url(#L_shoe_1_);}
	.st2{fill:#28306D;}
	.st3{fill:url(#handle_1_);}
	.st4{fill:url(#circle_1_);}
	.st5{fill:url(#hand_1_);}
	.st6{fill:url(#L_trousers_1_);}
	.st7{fill:#3E8AF8;}
	.st8{fill:url(#sweater-2_1_);}
	.st9{fill:#23286B;}
	.st10{fill:url(#neck_1_);}
	.st11{fill:url(#face_1_);}
	.st12{fill:#1C2868;}
</style>
<title>searching</title>
<g id="footprints">
	<ellipse id="_3" class="st0" cx="529.8829346" cy="370.9370422" rx="16.4920044" ry="8.1350098"/>
	<ellipse id="_2" class="st0" cx="411.9900208" cy="370.9370422" rx="16.4920044" ry="8.1350098"/>
	<ellipse id="_1" class="st0" cx="294.0959778" cy="370.9370422" rx="16.4920044" ry="8.1350098"/>
</g>
<g id="shoes">
	
		<linearGradient id="L_shoe_1_" gradientUnits="userSpaceOnUse" x1="-3.5839" y1="405.4042053" x2="83.4369125" y2="427.4941101" gradientTransform="matrix(1 0 0 1 0 -46)">
		<stop  offset="0" style="stop-color:#28306D"/>
		<stop  offset="0.51" style="stop-color:#1F275F"/>
		<stop  offset="1" style="stop-color:#171F51"/>
	</linearGradient>
	<path id="L_shoe" class="st1" d="M12.9609985,347.2440491L0,383.704071l91.7449951,0.0029907
		c0,0-4.70401-9.0739746-20.3859863-15.7940063s-30.302002-20.5670166-30.302002-20.5670166L12.9609985,347.2440491"/>
	<path id="R_shoe" class="st2" d="M81.3849792,347.3350525l-12.980011,36.3790283l91.7449951,0.0029907
		c0,0-4.70401-9.0739746-20.3859863-15.7940063s-30.2609863-20.3889771-30.2609863-20.3889771L81.3849792,347.3350525"/>
</g>
<g id="magnifying_glass">
	
		<linearGradient id="handle_1_" gradientUnits="userSpaceOnUse" x1="209.6983795" y1="220.6769409" x2="223.1195831" y2="215.9795227" gradientTransform="matrix(1 0 0 1 0 -46)">
		<stop  offset="0" style="stop-color:#E94A47"/>
		<stop  offset="1" style="stop-color:#DD2F2F"/>
	</linearGradient>
	<path id="handle" class="st3" d="M224.644989,174.5390625c-0.0499878,0.0079956-0.1000061,0.0119934-0.1499939,0.0100098
		h-8.2799988c-6.7799988-0.1000061-7.9100037-0.9700012-7.9899902-3.269989
		c-0.0020142-0.0799866,0.0020142-0.1600037,0.0100098-0.2399902c0.0090027-0.0580139,0.0220032-0.1149902,0.0400085-0.1700134
		c0.0090027-0.0450134,0.0220032-0.0880127,0.0400085-0.1300049l0.0299988-0.0599976
		c0.6099854-1.3399963,3.4500122-1.7000122,5.4100037-1.7900085h8.8599854
		C222.7340088,170.9280701,223.4389954,172.8900757,224.644989,174.5390625z"/>
	
		<linearGradient id="circle_1_" gradientUnits="userSpaceOnUse" x1="249.2791595" y1="209.0544281" x2="274.5280457" y2="234.4242096" gradientTransform="matrix(1 0 0 1 0 -46)">
		<stop  offset="0" style="stop-color:#E94A47"/>
		<stop  offset="1" style="stop-color:#DD2F2F"/>
	</linearGradient>
	<path id="circle" class="st4" d="M254.6470032,185.5180664c-17.9660034,0-32.0400085-7.4979858-32.0400085-17.0700073
		s14.072998-17.0700073,32.0400085-17.0700073c17.96698,0,32.039978,7.4979858,32.039978,17.0700073
		S272.6130066,185.5180664,254.6470032,185.5180664z M254.6470032,156.3770752
		c-12.7900085,0-27.0400085,4.9570007-27.0400085,12.0700073s14.25,12.0700073,27.0400085,12.0700073
		c12.789978,0,27.039978-4.9570007,27.039978-12.0700073S267.4369812,156.3770752,254.6470032,156.3770752z"/>
</g>
<linearGradient id="hand_1_" gradientUnits="userSpaceOnUse" x1="208.2095642" y1="240.4022827" x2="166.4628601" y2="195.8252869" gradientTransform="matrix(1 0 0 1 0 -46)">
	<stop  offset="0" style="stop-color:#FFBEB6"/>
	<stop  offset="1" style="stop-color:#F2A19C"/>
</linearGradient>
<path id="hand" class="st5" d="M209.3549805,190.1890564c0,0-13.8999939,1.7799988-19.7099915-7.7600098
	c-5.8200073-9.5400085-8.1000061-8.519989-15.8399963-9.8599854c-3.3399963-0.5799866-15.7200012-3.3200073-25.2600098-5.6000061
	l18.2799988-15.3800049c8.3299866,6.7099915,19.9599915,15.4700012,25.0799866,16.4599915
	c8.3999939,1.6099854,16.1600037-1.6199951,19.8800049-0.8099976c3.7099915,0.8099976,3.8999939,1.6499939,3.8999939,1.6499939
	s-7.5499878-0.3599854-7.4599915,2.3900146c0.1000061,2.7900085,1.7399902,3.480011,13.25,3.230011
	C231.5350037,174.2890625,215.3349915,189.8690491,209.3549805,190.1890564z"/>
<linearGradient id="L_trousers_1_" gradientUnits="userSpaceOnUse" x1="-6.0997839" y1="306.3204956" x2="95.4094009" y2="272.2315979" gradientTransform="matrix(1 0 0 1 0 -46)">
	<stop  offset="0" style="stop-color:#3E8AF8"/>
	<stop  offset="1" style="stop-color:#1479F2"/>
</linearGradient>
<path id="L_trousers" class="st6" d="M78.1349792,232.0690613c-4.3999939,17.6000061-3.7099915,13.2200012-4.3099976,44.2200317
	c-0.3099976,16.2000122-11.980011,22.8699951-11,44.0599976c0.0899963,1.8699951,0.1799927,3.5200195,0.2900085,5.0200195
	c-3.9500122,13.2299805-6.6499939,22.0300293-6.6499939,22.0300293l-48.6900024-0.1799927
	c-1.3980103-12.3560181-0.9599915-24.8519897,1.2999878-37.0800171
	c3.7600098-20.789978,11.6900024-28.2199707,14.1400146-44.1699829c3.8900146-25.3999939,8.4400024-36.6499939,18.25-51.8200073
	c9.5599976-14.769989,26.0400085-35.8800049,20.0799866-72.4299927c-0.6600037-4.0700073-1.25-7.9400024-1.769989-11.6099854
	c2.6140137,8.9219971,6.118988,17.5589905,10.4599915,25.7799988
	C96.2550049,205.5490723,80.2649841,223.5490723,78.1349792,232.0690613z"/>
<path id="R_trousers" class="st7" d="M87.9849854,94.5290527c-11.4700012,17.5299988-5.3900146,33.2000122-0.8200073,39.8500061
	c5.4700012,7.9299927,7.5,13.8500061,9.8599854,32.9899902c2.3599854,19.1499939,18.9200134,27.0499878,18.9200134,27.0499878
	l22.6900024-19.1000061c2.0750122,9.9400024,3.5840149,19.9890137,4.519989,30.1000061
	c1.9400024,22.4899902-19.3800049,124.2200317-23.2000122,142.1900024l-53.3800049-0.3800049
	c-2.4200134-12.5-3.230011-15.6400146-3.75-26.8800049c-0.980011-21.1900024,10.6900024-27.8599854,11-44.0599976
	c0.6000061-31-0.0899963-26.6199951,4.3099976-44.2200012c2.1300049-8.519989,18.1199951-26.519989-7.8999939-76.1799927
	c-24.1799927-46.1300049-13.4700012-83.2900085-9.9200134-93.2799988"/>
<g id="sweater">
	
		<linearGradient id="sweater-2_1_" gradientUnits="userSpaceOnUse" x1="128.1565552" y1="51.0395508" x2="103.1078644" y2="163.7587585" gradientTransform="matrix(1 0 0 1 0 -46)">
		<stop  offset="0" style="stop-color:#28306D"/>
		<stop  offset="0.51" style="stop-color:#1F275F"/>
		<stop  offset="1" style="stop-color:#171F51"/>
	</linearGradient>
	<path id="sweater-2" class="st8" d="M187.0950012,39.5390663c-1.1229858,1.4590149-2.0169983,3.0809937-2.6499939,4.8099976
		c-42.3399963,6.5899963-65.1399841,18.480011-87.6799927,39.8200035
		c-3.3200073,3.0960083-6.2669983,6.5690002-8.7799988,10.3500061
		C71.3850098,81.7390747,51.6650085,49.5290871,51.6650085,49.5290871
		c9.5499878-19.8399963,28.4700012-17.480011,43.4199829-16.4100037
		c14.9500122,1.0799866,23.8500061-7.1700134,49.7000122-4.3699951S187.0950012,39.5390663,187.0950012,39.5390663z"/>
	<path id="R_sleeve" class="st9" d="M190.7099915,61.9450722c0,0-25.1520081,19.3129845-36.5910034,36.261013
		s-10.2929993,22.0100098-0.1170044,36.3580017s13.1650085,16.7350159,13.1650085,16.7350159l-51.2210083,43.1220093
		c0,0-16.5599976-7.9020081-18.9219971-27.0469971s-4.3900146-25.0620117-9.8569946-32.9989929
		s-13.0669861-28.7399902,9.5979919-50.2030029s45.5950012-33.3739891,88.4079895-39.9360008l0,0"/>
</g>
<g id="head">
	
		<linearGradient id="neck_1_" gradientUnits="userSpaceOnUse" x1="183.351593" y1="97.7840729" x2="202.2949829" y2="97.7840729" gradientTransform="matrix(1 0 0 1 0 -46)">
		<stop  offset="0" style="stop-color:#FFBEB6"/>
		<stop  offset="1" style="stop-color:#F2A19C"/>
	</linearGradient>
	<path id="neck" class="st10" d="M202.2949829,54.5390663l-14.7999878,9.8500023c0,0-9.0499878-13.529995-0.3999939-24.8500023
		l6.230011-0.3599854c0.4599915,4.3699951,2.9100037,8.7799988,7.9599915,14.3399963
		C201.6149902,53.8690529,201.9450073,54.219059,202.2949829,54.5390663z"/>
	
		<linearGradient id="face_1_" gradientUnits="userSpaceOnUse" x1="258.016571" y1="88.915863" x2="302.8065491" y2="88.915863" gradientTransform="matrix(1 0 0 1 0 -46)">
		<stop  offset="0" style="stop-color:#FFBEB6"/>
		<stop  offset="1" style="stop-color:#F2A19C"/>
	</linearGradient>
	<path id="face" class="st11" d="M238.1149902,48.1590614c-2.5830078,3.6130066-4.8510132,7.4400024-6.7799988,11.4400024
		c-1.9299927,4.4399986-6.7799988-1.4200134-6.7799988-1.4200134s-14.7799988,4.730011-23.269989-4.6600037
		c-5.0499878-5.5599976-7.5-9.9700012-7.9599915-14.3399963c5.1000061,0.1499939,5.4400024-2.0299988,5.9599915-3.3800049
		c1.4599915-3.6900024-0.2399902-10.5100098,4.3200073-11.1600037c4.1700134-0.6000061,5.3399963,2.8699951,6.7900085,5.0700073
		C212.0249939,32.2090797,224.5749817,45.0290565,238.1149902,48.1590614z"/>
	<path id="eye" class="st12" d="M223.1940002,45.1340675c0.1340027,2.6069946,2.355011,4.6119995,4.9620056,4.4790039
		c0.9440002-0.0480042,1.8519897-0.3789978,2.6059875-0.947998c0.5769958-0.4289856,0.0140076-1.4110107-0.5710144-0.9760132
		c-1.5400085,1.2569885-3.8070068,1.0280151-5.0639954-0.5119934c-0.473999-0.5809937-0.7550049-1.2950134-0.8039856-2.0429993
		C224.2659912,44.4140663,223.1349792,44.4070778,223.1940002,45.1340675L223.1940002,45.1340675z"/>
	<path id="hair" class="st12" d="M263.868988,37.9050636c-2.7600098,6.9989929-8.9949951,10.0870056-15.690979,10.4670105
		c11.0200195-2.2269897,15.690979-12.2260132,15.690979-12.2260132c-6.0620117-2.3439941-13.7579956-7.0870056-19.0709839-11.071991
		c-4.4450073-3.3340149-9.8160095-9.0419922-17.2160034-17.0499878
		c-9.8670044-10.677002-28.2940063-11.7380066-36.3999939,3.1849976c-7.0650024,13.0079956,0.644989,28.053009,0.644989,28.053009
		c0.3299866-0.0100098,0.6700134-0.0329895,1.493988-0.0809937c5.1090088,0.1430054,5.4450073-2.0320129,5.9679871-3.381012
		c1.4530029-3.6889954-0.2430115-10.5130005,4.3179932-11.1660156c4.1700134-0.5969849,5.3420105,2.8779907,6.7829895,5.071991
		c1.7390137,2.6480103,15.7409973,16.9079895,30.1990051,18.9079895l0,0c0.4089966,0.0509949,0.8070068,0.0840149,1.20401,0.1159973
		c9.1260071,1.6170044,19.0270081-1.0629883,22.7989807-10.6260071
		C264.7690125,37.6560707,264.0439758,37.4610634,263.868988,37.9050636z"/>
</g>
</svg>
