<svg id="Layer_1" data-name="Layer 1" xmlns="http://www.w3.org/2000/svg" viewBox="0 0 60 49.04"><defs><style>.cls-1{fill:#282345;}</style></defs><title>rocket</title><path class="cls-1" d="M18.64,30.57a.73.73,0,0,0,.7.05l5.15-2.3H35.84L41,30.63A.73.73,0,0,0,42,30a9.95,9.95,0,0,0-4.67-8.45l1.25-9a.68.68,0,0,0,0-.1,11.31,11.31,0,0,0-2.16-6.67l-2.92-4a4.17,4.17,0,0,0-6.75,0l-2.92,4a11.32,11.32,0,0,0-2.16,6.67.69.69,0,0,0,0,.1l1.25,9A10,10,0,0,0,18.31,30,.73.73,0,0,0,18.64,30.57Zm16.84-3.71H24.85V25.18H35.48Zm-12.19-16H37a10,10,0,0,1,.12,1.5l-1.31,9.36v0l-.23,1.68,0,.27H24.76l-.06-.46-.21-1.49h0l-1.31-9.37A10,10,0,0,1,23.29,10.9Z"/><path class="cls-1" d="M52.29,40.59a7.67,7.67,0,0,0-6.07,2.94,6.89,6.89,0,0,0-4.14-1.37h-.45A11.66,11.66,0,0,0,35,33.73v-.34a.73.73,0,0,0-1.46,0v.82a.73.73,0,0,0,.46.68,10.19,10.19,0,0,1,6.3,8.19.73.73,0,0,0,.86.63,4.84,4.84,0,0,1,.93-.08,5.43,5.43,0,0,1,3.77,1.51A.73.73,0,0,0,47,45a6.25,6.25,0,0,1,11.56,3.31.73.73,0,0,0,1.46,0A7.73,7.73,0,0,0,52.29,40.59Z"/><path class="cls-1" d="M33.53,30.65a.73.73,0,0,0,1.46,0h0a.73.73,0,0,0-1.46,0Z"/><path class="cls-1" d="M26.07,29.91a.73.73,0,0,0-.73.73v3.09A11.65,11.65,0,0,0,18.7,42.2a6.94,6.94,0,0,0-4.92,1.33,7.67,7.67,0,0,0-6.07-2.94A7.75,7.75,0,0,0,1.06,44.4a.73.73,0,1,0,1.26.74,6.28,6.28,0,0,1,5.39-3.09A6.21,6.21,0,0,1,13,45a.73.73,0,0,0,1.13.14,5.46,5.46,0,0,1,5-1.37.73.73,0,0,0,.89-.63,10.19,10.19,0,0,1,6.31-8.24.73.73,0,0,0,.46-.68V30.64A.73.73,0,0,0,26.07,29.91Z"/><path class="cls-1" d="M.82,47a.72.72,0,0,0-.79.67c0,.21,0,.43,0,.65a.73.73,0,0,0,1.46,0q0-.26,0-.52A.73.73,0,0,0,.82,47Z"/><path class="cls-1" d="M30.17,21.32a4.1,4.1,0,1,0-4.1-4.1A4.1,4.1,0,0,0,30.17,21.32Zm0-5.76a1.67,1.67,0,1,1-1.67,1.67A1.67,1.67,0,0,1,30.17,15.55Z"/></svg>