<?xml version="1.0" encoding="utf-8"?>
<!-- Generator: Adobe Illustrator 23.1.1, SVG Export Plug-In . SVG Version: 6.00 Build 0)  -->
<svg version="1.1" id="Layer_1" xmlns="http://www.w3.org/2000/svg" xmlns:xlink="http://www.w3.org/1999/xlink" x="0px" y="0px"
	 viewBox="0 0 544.7000122 405.0598145" style="enable-background:new 0 0 544.7000122 405.0598145;" xml:space="preserve">
<style type="text/css">
	.st0{fill:url(#_3_1_);}
	.st1{fill:url(#_7_1_);}
	.st2{fill:url(#_5_1_);}
	.st3{fill:url(#_4_1_);}
	.st4{fill:url(#_1_1_);}
	.st5{fill:url(#_6_1_);}
	.st6{fill:url(#_2_1_);}
	.st7{fill:url(#_6-2_1_);}
	.st8{fill:url(#_2-2_1_);}
	.st9{fill:url(#_3-2_1_);}
	.st10{fill:url(#_4-2_1_);}
	.st11{fill:url(#_7-2_1_);}
	.st12{fill:url(#_1-2_1_);}
	.st13{fill:url(#_5-2_1_);}
	.st14{fill:url(#R_shoe_1_);}
	.st15{fill:url(#L_shoe_1_);}
	.st16{fill:url(#circle_1_);}
	.st17{fill:url(#half_a_circle_1_);}
	.st18{fill:#428DFC;}
	.st19{fill:url(#R_leg_1_);}
	.st20{fill:url(#L_leg_1_);}
	.st21{opacity:0.86;fill:#FFFFFF;enable-background:new    ;}
	.st22{fill:url(#R_hand_1_);}
	.st23{fill:url(#back_1_);}
	.st24{fill:#E94A47;}
	.st25{fill:url(#L_hand_1_);}
	.st26{fill:url(#R_sleeve_1_);}
	.st27{fill:url(#sweater_1_);}
	.st28{fill:#23286B;}
	.st29{fill:url(#neck_1_);}
	.st30{fill:#FFBEB6;}
	.st31{fill:url(#eyeglasses_1_);}
</style>
<g id="illustration">
	<g id="books">
		
			<linearGradient id="_3_1_" gradientUnits="userSpaceOnUse" x1="243.9000092" y1="453.9098511" x2="384.7000122" y2="453.9098511" gradientTransform="matrix(1 0 0 1 0 -166)">
			<stop  offset="0" style="stop-color:#23286B"/>
			<stop  offset="1" style="stop-color:#151A4F"/>
		</linearGradient>
		<path id="_3" class="st0" d="M384.7000122,287.9598389c0,7.2000122-5.7999878,13-13,13c-0.0999756,0-0.0999756,0-0.2000122,0l0,0
			H243.9000092v-5.2999878h128.0000153l0,0c4.2999878-0.2000122,7.5999756-3.7999878,7.4000244-8
			c-0.2000122-4.1000061-3.5999756-7.3999939-7.7000122-7.3999939c-0.0999756,0-0.2000122,0-0.2999878,0H243.9000092v-5.3999939
			h127.7000275l0,0h0.0999756C378.9000244,274.9598389,384.7000122,280.7598267,384.7000122,287.9598389z"/>
		
			<linearGradient id="_7_1_" gradientUnits="userSpaceOnUse" x1="388.8504944" y1="560.4986572" x2="222.6896515" y2="555.1530762" gradientTransform="matrix(1 0 0 1 0 -166)">
			<stop  offset="0" style="stop-color:#23286B"/>
			<stop  offset="1" style="stop-color:#151A4F"/>
		</linearGradient>
		<path id="_7" class="st1" d="M241.5999908,392.0598145c0,4.1000061,3.2999878,7.5,7.3999939,7.7000122l0,0H377v5.2999878
			H249.3000031l0,0h-0.1000061c-7.2000122,0-13-5.7999878-13-13s5.7999878-13,13-13l0,0h127.9000397v5.2999878H249.6999969
			c-0.1000061,0-0.2000122,0-0.2999878,0C245.0999908,384.2598267,241.5999908,387.7598267,241.5999908,392.0598145z"/>
		
			<linearGradient id="_5_1_" gradientUnits="userSpaceOnUse" x1="606.3758545" y1="592.746521" x2="174.8483124" y2="456.9850464" gradientTransform="matrix(1 0 0 1 0 -166)">
			<stop  offset="0" style="stop-color:#A1C3FC"/>
			<stop  offset="0.6955" style="stop-color:#81AEF2"/>
			<stop  offset="1" style="stop-color:#78A9EF"/>
		</linearGradient>
		<path id="_5" class="st2" d="M260.7000122,340.1598206c0,4.1000061,3.2999878,7.5,7.3999634,7.7000122l0,0h127.3000488v5.2000122
			H267.7000122l0,0c-7.2000122-0.1000061-13.0000153-6-12.9000092-13.2000122
			c0.1000061-7.1000061,5.7999725-12.7999878,12.9000092-12.8999939l0,0H395.5v5.5H268.7999878
			c-0.0999756,0-0.2000122,0-0.2999878,0C264.2000122,332.4598389,260.7000122,335.8598328,260.7000122,340.1598206z"/>
		
			<linearGradient id="_4_1_" gradientUnits="userSpaceOnUse" x1="370.1533203" y1="507.5391541" x2="155.2603912" y2="395.7071533" gradientTransform="matrix(1 0 0 1 0 -166)">
			<stop  offset="0" style="stop-color:#A1C3FC"/>
			<stop  offset="0.6955" style="stop-color:#81AEF2"/>
			<stop  offset="1" style="stop-color:#78A9EF"/>
		</linearGradient>
		<path id="_4" class="st3" d="M310.9000244,313.3598328c0,0.2000122,0,0.3999939,0,0.5
			c0,4.1000061,3.2999878,7.5,7.3999634,7.7000122l0,0h0.2999878l0,0l0,0h63.8000488v5.2999878H254.5999908
			c-7.2000122,0-13-5.8999939-13-13.1000061s5.7999878-13,13-13h127.6999969v5.2999878h-63.5c-0.1000366,0-0.2000122,0-0.2999878,0
			c-0.2000122,0-0.2999878,0-0.5,0c-3.6000366,0.2000122-6.5,3-7.1000366,6.5
			C310.9000244,312.9598389,310.9000244,313.1598206,310.9000244,313.3598328z"/>
		
			<linearGradient id="_1_1_" gradientUnits="userSpaceOnUse" x1="244.0999908" y1="401.9098206" x2="377.1000366" y2="401.9098206" gradientTransform="matrix(1 0 0 1 0 -166)">
			<stop  offset="0.1291" style="stop-color:#428DFC"/>
			<stop  offset="0.9987" style="stop-color:#1D72D8"/>
		</linearGradient>
		<path id="_1" class="st4" d="M323.7000122,235.1598206c0,0.2999878,0,0.5,0,0.7999878
			c0,4.1000061,3.2999878,7.5,7.4000244,7.7000122l0,0h46v5.2999878h-120.000061
			c-7.1999969,0-12.9999847-5.8999939-12.9999847-13.1000061s5.7999878-12.8999939,12.9999847-13H377v5.2999878h-45.4000244
			c-0.0999756,0-0.2000122,0-0.2999878,0s-0.2999878,0-0.4000244,0c-3.5999756,0.2000122-6.7000122,2.8999939-7.2000122,6.5
			C323.7000122,234.8598328,323.7000122,235.0598145,323.7000122,235.1598206z"/>
		
			<linearGradient id="_6_1_" gradientUnits="userSpaceOnUse" x1="266.9526978" y1="531.9598389" x2="407.8526611" y2="531.9598389" gradientTransform="matrix(1 0 0 1 0 -166)">
			<stop  offset="0.1291" style="stop-color:#428DFC"/>
			<stop  offset="0.9987" style="stop-color:#1D72D8"/>
		</linearGradient>
		<path id="_6" class="st5" d="M396.2999878,365.9598389c0,7.2000122-5.7999878,13-13,13c0,0-0.0999756,0-0.2000122,0l0,0
			H255.4000092v-5.2999878h69.7000275l0,0c4.0999756-0.2000122,7.4000244-3.6000061,7.4000244-7.7000122
			c0-0.2000122,0-0.3999939,0-0.5c-0.2999878-3.7999878-3.2999878-6.8999939-7.2000122-7.2000122c-0.2000122,0-0.2999878,0-0.5,0
			c-0.0999756,0-0.2000122,0-0.2999878,0h-69.0000153v-5.2999878h127.7000275l0,0c0,0,0.0999756,0,0.2000122,0
			C390.4000244,352.9598389,396.2999878,358.7598267,396.2999878,365.9598389z"/>
		
			<linearGradient id="_2_1_" gradientUnits="userSpaceOnUse" x1="244.3552094" y1="427.9592285" x2="413.7961426" y2="427.9592285" gradientTransform="matrix(1 0 0 1 0 -166)">
			<stop  offset="0" style="stop-color:#A1C3FC"/>
			<stop  offset="0.6955" style="stop-color:#81AEF2"/>
			<stop  offset="0.7528" style="stop-color:#7FADF1"/>
			<stop  offset="1" style="stop-color:#78A9EF"/>
		</linearGradient>
		<path id="_2" class="st6" d="M392.9000244,261.9598389c0,7.2000122-5.7999878,13-13,13h-0.2000122l0,0H251.9000092v-5.2999878
			h127.3000031l0,0c4.2999878-0.2000122,7.5999756-3.7999878,7.4000244-8
			c-0.2000122-4.1000061-3.5999756-7.3999939-7.7000122-7.3999939c-0.0999756,0-0.2000122,0-0.2999878,0H251.9000092v-5.2999878
			h127.7000275l0,0h0.2000122C387,248.8598328,392.9000244,254.7598267,392.9000244,261.9598389z"/>
		
			<linearGradient id="_6-2_1_" gradientUnits="userSpaceOnUse" x1="280.3922729" y1="531.9598389" x2="352.2922974" y2="531.9598389" gradientTransform="matrix(1 0 0 1 0 -166)">
			<stop  offset="0.08983" style="stop-color:#EEEEEE"/>
			<stop  offset="0.8178" style="stop-color:#D6D7D8"/>
		</linearGradient>
		<path id="_6-2" class="st7" d="M332.4000244,365.9598389c0,4.1000061-3.2999878,7.5-7.4000244,7.7000122l0,0h-64.5v-15.4000244
			h64.7000122c3.7999878,0.2999878,6.9000244,3.2999878,7.2000122,7.2000122
			C332.4000244,365.5598145,332.4000244,365.7598267,332.4000244,365.9598389z"/>
		
			<linearGradient id="_2-2_1_" gradientUnits="userSpaceOnUse" x1="253.9752808" y1="428.9929504" x2="388.86026" y2="426.8382568" gradientTransform="matrix(1 0 0 1 0 -166)">
			<stop  offset="0.08983" style="stop-color:#EEEEEE"/>
			<stop  offset="0.8178" style="stop-color:#D6D7D8"/>
		</linearGradient>
		<path id="_2-2" class="st8" d="M386.7000122,261.9598389c0.0999756-4.1000061-3.2000122-7.6000061-7.2999878-7.7000122
			c-0.0999756,0-0.2000122,0-0.2999878,0H257.7000122v15.3999939h121.5999756l0,0l0,0h0.2999878l0,0
			C383.7000122,269.3598328,386.7000122,265.9598389,386.7000122,261.9598389z"/>
		
			<linearGradient id="_3-2_1_" gradientUnits="userSpaceOnUse" x1="248.9999847" y1="453.9598389" x2="379.2023621" y2="453.9598389" gradientTransform="matrix(1 0 0 1 0 -166)">
			<stop  offset="0.08983" style="stop-color:#EEEEEE"/>
			<stop  offset="0.8178" style="stop-color:#D6D7D8"/>
		</linearGradient>
		<path id="_3-2" class="st9" d="M379.2000122,287.9598389c0.0999756-4.2000122-3.2000122-7.6000061-7.4000244-7.7000122
			c-0.0999756,0-0.2000122,0-0.2999878,0H248.9999847v15.3999939h122.8000031l0,0l0,0h0.2999878l0,0
			C376.2000122,295.3598328,379.2999878,291.9598389,379.2000122,287.9598389z"/>
		
			<linearGradient id="_4-2_1_" gradientUnits="userSpaceOnUse" x1="381.3342896" y1="481.6594543" x2="287.3986206" y2="476.9196777" gradientTransform="matrix(1 0 0 1 0 -166)">
			<stop  offset="0.08983" style="stop-color:#EEEEEE"/>
			<stop  offset="0.8178" style="stop-color:#D6D7D8"/>
		</linearGradient>
		<path id="_4-2" class="st10" d="M377.1000366,306.2598267v15.3999939h-58.9000244l0,0
			c-4.0999756-0.2000122-7.3999634-3.6000061-7.3999634-7.7000122c0-0.2000122,0-0.3999939,0-0.5
			c0-0.2000122,0-0.3999939,0.0999756-0.6000061c0.5-3.6000061,3.5-6.2999878,7.1000366-6.5h59.0999756V306.2598267z"/>
		
			<linearGradient id="_7-2_1_" gradientUnits="userSpaceOnUse" x1="396.1570435" y1="558.2393799" x2="191.0284424" y2="557.8084717" gradientTransform="matrix(1 0 0 1 0 -166)">
			<stop  offset="0.08983" style="stop-color:#EEEEEE"/>
			<stop  offset="0.8178" style="stop-color:#D6D7D8"/>
		</linearGradient>
		<path id="_7-2" class="st11" d="M372.6000366,384.3598328H249.4000092c-0.1000061,0-0.2000122,0-0.2999878,0
			c-4.2999878,0.2000122-7.6000061,3.7000122-7.3999939,8c0.1000061,3.8999939,3.2000122,7.1000061,7.1000061,7.3999939l0,0
			h0.2999878l0,0l0,0h123.5000153V384.3598328z"/>
		
			<linearGradient id="_1-2_1_" gradientUnits="userSpaceOnUse" x1="388.2118225" y1="407.8725891" x2="326.6020203" y2="397.9633179" gradientTransform="matrix(1 0 0 1 0 -166)">
			<stop  offset="0.08983" style="stop-color:#EEEEEE"/>
			<stop  offset="0.8178" style="stop-color:#D6D7D8"/>
		</linearGradient>
		<path id="_1-2" class="st12" d="M372.2000122,228.2598267v15.3999939H331l0,0
			c-4.0999756-0.2000122-7.4000244-3.6000061-7.4000244-7.7000122c0-0.2999878,0-0.5,0-0.7999878
			c0-0.1000061,0-0.2999878,0-0.3999939c0.5999756-3.6000061,3.5999756-6.2999878,7.2000122-6.5H372.2000122z"/>
		
			<linearGradient id="_5-2_1_" gradientUnits="userSpaceOnUse" x1="383.6542969" y1="507.0119629" x2="216.4486237" y2="504.4263611" gradientTransform="matrix(1 0 0 1 0 -166)">
			<stop  offset="0.08983" style="stop-color:#EEEEEE"/>
			<stop  offset="0.8178" style="stop-color:#D6D7D8"/>
		</linearGradient>
		<path id="_5-2" class="st13" d="M389.4000244,332.4598389H268.2999878c-0.0999756,0-0.2000122,0-0.2999878,0
			c-4.2999878,0.2000122-7.5,3.8999939-7.2999878,8.1000061c0.2000122,3.7999878,3.2000122,6.8999939,7,7.2999878l0,0H268l0,0l0,0
			h121.3000488v-15.3999939H389.4000244z"/>
	</g>
	<g id="man">
		
			<linearGradient id="R_shoe_1_" gradientUnits="userSpaceOnUse" x1="50.4258347" y1="495.2980652" x2="141.9013824" y2="495.2980652" gradientTransform="matrix(0.9998 -0.0211666 0.0211666 0.9998 -8.6299667 -170.7440643)">
			<stop  offset="0" style="stop-color:#23286B"/>
			<stop  offset="1" style="stop-color:#151A4F"/>
		</linearGradient>
		<path id="R_shoe" class="st14" d="M143.5999908,315.4598389l-13.8999939,39.5l-78.1000061-63.2000122
			c0,0,10.3000031-4.5,28.2999878,0.7000122s40,3.6000061,40,3.6000061L143.5999908,315.4598389"/>
		
			<linearGradient id="L_shoe_1_" gradientUnits="userSpaceOnUse" x1="92.4850235" y1="530.6953735" x2="183.9605713" y2="530.6953735" gradientTransform="matrix(0.9998 -0.0211666 0.0211666 0.9998 -8.6299667 -170.7440643)">
			<stop  offset="0" style="stop-color:#23286B"/>
			<stop  offset="1" style="stop-color:#151A4F"/>
		</linearGradient>
		<path id="L_shoe" class="st15" d="M186.4000092,349.9598389l-13.8999939,39.5l-78.1000061-63.2000122
			c0,0,10.2999878-4.5,28.2999878,0.7000122s40,3.6000061,40,3.6000061L186.4000092,349.9598389"/>
		
			<linearGradient id="circle_1_" gradientUnits="userSpaceOnUse" x1="540.9778442" y1="445.7857666" x2="302.9733582" y2="698.3026733" gradientTransform="matrix(1 0 0 1 0 -166)">
			<stop  offset="0" style="stop-color:#23286B"/>
			<stop  offset="1" style="stop-color:#151A4F"/>
		</linearGradient>
		<circle id="circle" class="st16" cx="482" cy="342.3598328" r="62.7000008"/>
		
			<linearGradient id="half_a_circle_1_" gradientUnits="userSpaceOnUse" x1="0" y1="501.6598206" x2="151.1000214" y2="501.6598206" gradientTransform="matrix(1 0 0 1 0 -166)">
			<stop  offset="0" style="stop-color:#A1C3FC"/>
			<stop  offset="0.6955" style="stop-color:#81AEF2"/>
			<stop  offset="1" style="stop-color:#78A9EF"/>
		</linearGradient>
		<path id="half_a_circle" class="st17" d="M84.3000031,405.0598145c-46.5,0-84.1999969-37.7000122-84.3000031-84.2000122
			C0,301.65979,6.5,283.0598145,18.5,268.15979l1.5-1.8999939l131.1000214,106.1999817l-1.5,1.7999878
			C133.5999908,393.7598267,109.5999908,405.0598145,84.3000031,405.0598145z M20.8000031,272.9598389
			c-26.3999939,35.1000061-19.3999939,85,15.8000031,111.3999939
			c33.3000031,25.1000061,80.4000092,20.1999817,107.8000031-11.2999878L20.8000031,272.9598389z"/>
		<path id="triangle" class="st18" d="M389.2999878,322.2598267l9.5999756-153l135.2000122,72.2000122L389.2999878,322.2598267z
			 M403.4000244,177.3598328l-8.5,136.1000061l128.7999878-71.9000244L403.4000244,177.3598328z"/>
		
			<linearGradient id="R_leg_1_" gradientUnits="userSpaceOnUse" x1="80.5965881" y1="345.1983032" x2="229.3392944" y2="408.0598145" gradientTransform="matrix(1 0 0 1 0 -166)">
			<stop  offset="0.08983" style="stop-color:#EEEEEE"/>
			<stop  offset="0.8178" style="stop-color:#D6D7D8"/>
		</linearGradient>
		<path id="R_leg" class="st19" d="M374.2999878,186.9598389
			C374.2999878,187.0598145,374.2000122,187.0598145,374.2999878,186.9598389
			c-0.0999756,0.2000122-0.2000122,0.2999878-0.2000122,0.3999939c-0.0999756,0.2000122-0.2000122,0.3999939-0.2999878,0.6000061
			c-0.0999756,0.1000061-0.2000122,0.2999878-0.2000122,0.3999939c-0.2000122,0.2999878-0.2999878,0.5-0.5,0.7999878
			c-0.2000122,0.3999939-0.5,0.7000122-0.7999878,1.1000061c-0.2000122,0.2999878-0.5,0.7000122-0.7999878,1.1000061
			c-0.2999878,0.5-0.7000122,1-1.2000122,1.5c-0.2000122,0.2000122-0.4000244,0.5-0.5999756,0.7000122
			c-1.0999756,1.5-2.5,3-4.0999756,4.7000122c-0.4000244,0.3999939-0.7999878,0.7999878-1.2000122,1.2000122
			c-0.2000122,0.1000061-0.2999878,0.2999878-0.5,0.5c-0.2999878,0.2999878-0.5999756,0.6000061-0.9000244,0.8999939
			c-0.2999878,0.2999878-0.5999756,0.6000061-0.9000244,0.8999939c-0.2000122,0.2000122-0.4000244,0.3999939-0.5999756,0.5
			c-0.7999878,0.7000122-1.5999756,1.3999939-2.5,2.1000061c-0.2999878,0.2999878-0.7000122,0.5-1,0.7999878
			c-1.0999756,0.8999939-2.2999878,1.7000122-3.5,2.6000061c-0.4000244,0.2999878-0.7999878,0.6000061-1.2999878,0.8999939
			c-1.4000244,0.8999939-2.9000244,1.8999939-4.4000244,2.7000122c-0.2999878,0.2000122-0.7000122,0.3999939-1,0.6000061
			c-4.5999756,2.5-9.4000244,4.6000061-14.4000244,6.2000122c-0.5,0.1000061-0.9000244,0.2999878-1.4000244,0.3999939
			c-0.2000122,0.1000061-0.2999878,0.1000061-0.5,0.1000061c-0.4000244,0.1000061-0.9000244,0.2999878-1.2999878,0.3999939
			c-0.5,0.1000061-0.9000244,0.2999878-1.2999878,0.3999939c-0.5,0.1000061-1,0.2999878-1.5,0.3999939
			c-0.2000122,0.1000061-0.4000244,0.1000061-0.5999756,0.2000122c-0.5999756,0.1000061-1.2000122,0.2999878-1.7999878,0.3999939
			c-2.0999756,0.5-4.2000122,0.8999939-6.5,1.2000122c-1.2999878,0.2000122-2.6000366,0.3999939-4,0.5
			c-0.5,0.1000061-0.9000244,0.1000061-1.4000244,0.1000061c-0.5,0.1000061-1,0.1000061-1.5999756,0.1000061
			c-0.7999878,0.1000061-1.6000366,0.1000061-2.4000244,0.2000122c-0.7000122,0-1.2999878,0.1000061-2,0.1000061
			c-1,0-2,0.1000061-3,0.1000061c-0.8999634,0-1.7000122,0-2.5999756,0h-0.9000244c-0.5,0-0.8999634,0-1.3999634,0
			c-18.9000244-1.2000122-36.5-4-45.2000275-2.6000061c-19.6000061,3.1000061-26.2999878,27.8999939-36.1000061,41.7999878
			c-9.7999878,13.8999939-24.2000122,12.8999939-25.7999878,33c-1.5,20.1000061-29.3999939,35.2999878-29.3999939,35.2999878l0,0
			l-42.7999878-34.5c0,0,65.3999939-74.6000061,87.1000061-99.3999939c1.3999939-1.6000061,2.6000061-2.8999939,3.6000061-4.1000061
			c14.8999939-16.2000122,78.2000275-28.3999939,96.8999786-31.6000061
			C328.7000122,184.9598389,356.7000122,187.9598389,374.2999878,186.9598389z"/>
		
			<linearGradient id="L_leg_1_" gradientUnits="userSpaceOnUse" x1="224.1960602" y1="429.4638672" x2="386.2193604" y2="273.6380615" gradientTransform="matrix(1 0 0 1 0 -166)">
			<stop  offset="0.08983" style="stop-color:#EEEEEE"/>
			<stop  offset="0.8178" style="stop-color:#D6D7D8"/>
		</linearGradient>
		<path id="L_leg" class="st20" d="M374.2999878,186.9598389
			C374.2999878,187.0598145,374.2999878,187.0598145,374.2999878,186.9598389
			c-0.0999756,0.2000122-0.2000122,0.2999878-0.2999878,0.3999939c-0.0999756,0.2000122-0.2000122,0.3999939-0.2999878,0.6000061
			C373.6000366,188.059845,373.5,188.2598267,373.5,188.3598328c-0.2000122,0.2999878-0.2999878,0.5-0.5,0.7999878
			c-0.2000122,0.3999939-0.5,0.7000122-0.7999878,1.1000061c-0.2000122,0.2999878-0.5,0.7000122-0.7999878,1.1000061
			c-0.2999878,0.5-0.7000122,1-1.2000122,1.5c-0.2000122,0.2000122-0.4000244,0.5-0.5999756,0.7000122
			c-1.0999756,1.5-2.5,3-4.0999756,4.7000122c-0.4000244,0.3999939-0.7999878,0.7999878-1.2000122,1.2000122
			c-0.2000122,0.1000061-0.2999878,0.2999878-0.5,0.5c-0.2999878,0.2999878-0.5999756,0.6000061-0.9000244,0.8999939
			c-0.2999878,0.2999878-0.5999756,0.6000061-0.9000244,0.8999939c-0.2000122,0.2000122-0.4000244,0.3999939-0.5999756,0.5
			c-0.7999878,0.7000122-1.5999756,1.3999939-2.5,2.1000061c-0.2999878,0.2999878-0.7000122,0.5-1,0.7999878
			c-1.0999756,0.8999939-2.2999878,1.7000122-3.5,2.6000061c-0.4000244,0.2999878-0.7999878,0.6000061-1.2999878,0.8999939
			c-1.4000244,0.8999939-2.9000244,1.8999939-4.4000244,2.7000122c-0.2999878,0.2000122-0.7000122,0.3999939-1,0.6000061
			c-4.5999756,2.5-9.4000244,4.6000061-14.4000244,6.2000122c-0.5,0.1000061-0.9000244,0.2999878-1.4000244,0.3999939
			c-0.2000122,0.1000061-0.2999878,0.1000061-0.5,0.1000061c-0.4000244,0.1000061-0.9000244,0.2999878-1.2999878,0.3999939
			c-0.5,0.1000061-0.9000244,0.2999878-1.2999878,0.3999939c-0.5,0.1000061-1,0.2999878-1.5,0.3999939
			c-0.2000122,0.1000061-0.4000244,0.1000061-0.5999756,0.2000122c-0.5999756,0.1000061-1.2000122,0.2999878-1.7999878,0.3999939
			c-2.0999756,0.5-4.2000122,0.8999939-6.5,1.2000122c-1.2999878,0.2000122-2.6000366,0.3999939-4,0.5
			c-0.5,0.1000061-0.9000244,0.1000061-1.4000244,0.1000061c-0.5,0.1000061-1,0.1000061-1.5999756,0.1000061
			c-0.7999878,0.1000061-1.6000366,0.1000061-2.4000244,0.2000122c-0.7000122,0-1.2999878,0.1000061-2,0.1000061
			c-1,0-2,0.1000061-3,0.1000061c-0.8999634,0-1.7000122,0-2.5999756,0H300.5c-0.5,0-0.8999634,0-1.3999634,0
			C255.0000153,222.559906,258.5,229.559906,252.9000092,241.8599243c-5.7000122,12.3999939-1.5,25.2999878-15.5,40.7999878
			c-13.8999939,15.5-10.2999878,31.7999878-12.8999939,47.5c-1.6000061,9.3999939-13,35-21.2000122,38.6000061
			l-40.7000122-38.3999939c0,0,0.6000061-1.6000061,1.6000061-4.5
			c7.3999939-20.3999939,31.7999878-105.7000122,38.6000061-121.1000061
			c1.2000122-2.7999878,2.6000061-5.6000061,4.1000061-8.2999878c6-10.6000061,12.2000122-13.7000122,25.2999878-17.5
			c12.1000061-3.5,53.5000153-15.7000122,72.5999908-21.2999878c0.9000244,1.1000061,1.7000122,2.1000061,2.6000366,3.1000061
			C328.7000122,184.9598389,356.7000122,187.9598389,374.2999878,186.9598389L374.2999878,186.9598389z"/>
		<path id="texture" class="st21" d="M333,189.0598145c0-0.1000061-0.0999756-0.2000122-0.2000122-0.2000122
			c-0.0999756,0-0.2000122,0.1000061-0.2000122,0.2000122s0.0999756,0.2000122,0.2000122,0.2000122l0,0
			C332.9000244,189.2598267,333,189.1598206,333,189.0598145L333,189.0598145z M333.2000122,183.9598389
			c0-0.1000061-0.0999756-0.2000122-0.2000122-0.2000122l0,0c-0.0999756,0-0.2000122,0.1000061-0.2000122,0.2000122
			s0.0999756,0.2000122,0.2000122,0.2000122C333.1000366,184.1598206,333.2000122,184.0598145,333.2000122,183.9598389
			L333.2000122,183.9598389L333.2000122,183.9598389z M313.4000244,179.9598389
			c-0.1000366-0.1000061-0.2000122-0.1000061-0.2999878,0c-0.1000366,0.1000061-0.1000366,0.2000122,0,0.2999878l0,0
			c0.0999756,0.1000061,0.2000122,0.1000061,0.2999878,0S313.5,180.0598145,313.4000244,179.9598389L313.4000244,179.9598389z
			 M343.1000366,184.4598389c0-0.1000061-0.2000122-0.2000122-0.2999878-0.1000061s-0.2000122,0.2000122-0.0999756,0.2999878
			s0.2000122,0.2000122,0.2999878,0.1000061l0,0C343.1000366,184.7598267,343.1000366,184.6598206,343.1000366,184.4598389
			L343.1000366,184.4598389L343.1000366,184.4598389z M323.4000244,183.8598328
			c-0.0999756-0.1000061-0.2000122,0-0.2999878,0.1000061s0,0.2000122,0.0999756,0.2999878s0.2000122,0,0.2999878-0.1000061
			C323.6000366,184.0598145,323.5,183.9598389,323.4000244,183.8598328z M325.5,179.2598267
			c-0.0999756,0-0.2000122,0-0.2999878,0.1000061c0,0.1000061,0,0.2000122,0.0999756,0.2999878l0,0
			c0.0999756,0.1000061,0.2000122,0,0.2999878-0.1000061l0,0C325.7000122,179.3598328,325.6000366,179.2598267,325.5,179.2598267
			L325.5,179.2598267z M357.9000244,201.4598389c-0.0999756-0.2000122-0.2999878-0.2999878-0.5-0.2000122l0,0
			c-0.2000122,0.1000061-0.2999878,0.2999878-0.2000122,0.5l0,0c0.0999756,0.2000122,0.2999878,0.2999878,0.5,0.2000122l0,0
			C357.9000244,201.8598328,357.9000244,201.6598206,357.9000244,201.4598389L357.9000244,201.4598389z M353.7999878,192.5598145
			c-0.0999756-0.2000122-0.2999878-0.2999878-0.5-0.2000122l0,0c-0.2000122,0.1000061-0.2999878,0.2999878-0.2000122,0.5
			s0.2999878,0.2999878,0.5,0.2000122l0,0C353.7999878,193.0598145,353.9000244,192.8598328,353.7999878,192.5598145
			L353.7999878,192.5598145z M320.7999878,211.4598389c-0.2000122-0.1000061-0.3999634,0-0.5,0.2000122
			c-0.0999756,0.2000122,0,0.3999939,0.2000122,0.5l0,0c0.2000122,0.1000061,0.4000244,0,0.5-0.2000122
			S321,211.5598145,320.7999878,211.4598389L320.7999878,211.4598389L320.7999878,211.4598389z M324.2000122,202.3598328
			c-0.2000122-0.1000061-0.4000244,0-0.5,0.2000122l0,0c-0.0999756,0.2000122,0,0.3999939,0.2000122,0.5s0.4000244,0,0.5-0.2000122
			S324.4000244,202.4598389,324.2000122,202.3598328L324.2000122,202.3598328z M327.7000122,193.2598267
			c-0.2000122-0.1000061-0.4000244,0-0.5,0.2000122s0,0.3999939,0.2000122,0.5l0,0c0.2000122,0.1000061,0.4000244,0,0.5-0.2000122
			l0,0C328,193.5598145,327.9000244,193.3598328,327.7000122,193.2598267L327.7000122,193.2598267z M331,184.1598206
			c-0.2000122-0.1000061-0.4000244,0-0.5,0.2000122l0,0c-0.0999756,0.2000122,0,0.3999939,0.2000122,0.5s0.4000244,0,0.5-0.2000122
			S331.2999878,184.2598267,331,184.1598206C331.1000366,184.1598206,331,184.1598206,331,184.1598206z M368.6000366,188.0598145
			c-0.2000122-0.2000122-0.4000244-0.1000061-0.5999756,0c-0.2000122,0.2000122-0.0999756,0.3999939,0,0.6000061
			s0.4000244,0.1000061,0.5999756,0S368.7999878,188.1598206,368.6000366,188.0598145L368.6000366,188.0598145z
			 M342.2000122,210.5598145c0-0.2000122-0.2000122-0.3999939-0.4000244-0.3999939s-0.4000244,0.2000122-0.4000244,0.3999939
			c0,0.2000122,0.2000122,0.3999939,0.4000244,0.3999939l0,0C342,210.9598389,342.2000122,210.8598328,342.2000122,210.5598145
			L342.2000122,210.5598145z M341.7999878,200.8598328c0-0.2000122-0.2000122-0.3999939-0.4000244-0.3999939
			s-0.4000244,0.2000122-0.4000244,0.3999939c0,0.2000122,0.2000122,0.3999939,0.4000244,0.3999939l0,0
			C341.7000122,201.2598267,341.7999878,201.1598206,341.7999878,200.8598328L341.7999878,200.8598328z M341.5,191.1598206
			c0-0.2000122-0.2000122-0.3999939-0.4000244-0.3999939s-0.4000244,0.2000122-0.4000244,0.3999939
			c0,0.2000122,0.2000122,0.3999939,0.4000244,0.3999939C341.2999878,191.6598206,341.5,191.4598389,341.5,191.1598206
			L341.5,191.1598206z M307.2000122,197.5598145c-0.2000122-0.1000061-0.4000244-0.1000061-0.5,0l0,0
			c-0.1000366,0.2000122-0.1000366,0.3999939,0,0.6000061l0,0c0.2000122,0.2000122,0.3999634,0.1000061,0.5999756,0
			C307.2999878,197.9598389,307.2999878,197.7598267,307.2000122,197.5598145L307.2000122,197.5598145z M313.7999878,190.4598389
			c-0.2000122-0.2000122-0.3999634-0.2000122-0.5999756,0l0,0c-0.2000122,0.2000122-0.1000366,0.3999939,0,0.6000061
			c0.2000122,0.1000061,0.3999634,0.1000061,0.5999756,0C314,190.8598328,314,190.6598206,313.7999878,190.4598389
			L313.7999878,190.4598389L313.7999878,190.4598389z M320.4000244,183.3598328
			c-0.2000122-0.2000122-0.4000244-0.1000061-0.6000366,0c-0.2000122,0.2000122-0.0999756,0.3999939,0,0.6000061l0,0
			c0.2000122,0.1000061,0.4000244,0.1000061,0.5,0l0,0C320.5999756,183.7598267,320.5999756,183.5598145,320.4000244,183.3598328
			L320.4000244,183.3598328z M350.5,201.4598389c0-0.2000122-0.2000122-0.2999878-0.4000244-0.2999878
			s-0.2999878,0.2000122-0.2999878,0.3999939s0.2000122,0.2999878,0.4000244,0.2999878l0,0
			C350.2999878,201.8598328,350.5,201.6598206,350.5,201.4598389L350.5,201.4598389L350.5,201.4598389z M349.2999878,192.8598328
			c0-0.1000061,0-0.1000061-0.0999756-0.2000122l0,0c-0.0999756-0.1000061-0.2000122-0.1000061-0.2999878-0.1000061
			c-0.2000122,0-0.2999878,0.2000122-0.2999878,0.3999939l0,0c0,0.2000122,0.2000122,0.2999878,0.4000244,0.2999878
			c0.0999756,0,0.2000122-0.1000061,0.2000122-0.1000061C349.2999878,193.0598145,349.4000244,192.9598389,349.2999878,192.8598328
			L349.2999878,192.8598328z M316.2999878,200.2598267c-0.2000122-0.1000061-0.3999634-0.1000061-0.5,0.1000061l0,0
			c-0.0999756,0.1000061-0.0999756,0.3999939,0,0.5l0,0c0.2000122,0.1000061,0.4000244,0.1000061,0.5-0.1000061
			C316.4000244,200.6598206,316.4000244,200.4598389,316.2999878,200.2598267L316.2999878,200.2598267z M321.5,193.4598389
			c-0.2000122-0.1000061-0.4000244-0.1000061-0.5,0.1000061l0,0c-0.1000366,0.1000061-0.1000366,0.3999939,0,0.5l0,0
			c0.2000122,0.1000061,0.3999634,0.1000061,0.5-0.1000061C321.7000122,193.7598267,321.7000122,193.5598145,321.5,193.4598389
			L321.5,193.4598389z M326.7999878,186.5598145c-0.2000122-0.1000061-0.4000244-0.1000061-0.5,0.1000061l0,0
			c-0.0999756,0.1000061-0.0999756,0.3999939,0,0.5l0,0c0.2000122,0.1000061,0.4000244,0.1000061,0.5-0.1000061l0,0
			C327,186.9598389,327,186.6598206,326.7999878,186.5598145L326.7999878,186.5598145z M332.1000366,179.7598267
			c-0.2000122-0.1000061-0.4000244-0.1000061-0.5,0.1000061s-0.0999756,0.3999939,0.0999756,0.5
			c0.2000122,0.1000061,0.4000244,0.1000061,0.5-0.1000061S332.2000122,179.8598328,332.1000366,179.7598267
			L332.1000366,179.7598267z M363.2999878,192.5598145c-0.0999756-0.2000122-0.2999878-0.2000122-0.5-0.1000061l0,0
			c-0.2000122,0.1000061-0.2000122,0.2999878-0.0999756,0.5l0,0c0.0999756,0.2000122,0.2999878,0.2000122,0.5,0.1000061l0,0
			C363.4000244,192.9598389,363.4000244,192.7598267,363.2999878,192.5598145L363.2999878,192.5598145z M334.6000366,204.4598389
			c-0.2000122,0-0.4000244,0.1000061-0.4000244,0.2999878c0,0.2000122,0.0999756,0.3999939,0.2999878,0.3999939
			c0.2000122,0.1000061,0.4000244-0.1000061,0.4000244-0.2000122
			C334.9000244,204.7598267,334.7999878,204.5598145,334.6000366,204.4598389z M336.9000244,196.1598206
			c-0.2000122,0-0.4000244,0.1000061-0.4000244,0.2999878c0,0.2000122,0.0999756,0.3999939,0.2999878,0.3999939
			c0.2000122,0.1000061,0.4000244,0,0.4000244-0.2000122l0,0C337.2000122,196.3598328,337,196.1598206,336.9000244,196.1598206
			L336.9000244,196.1598206z M339.1000366,187.7598267c-0.2000122-0.1000061-0.4000244,0-0.4000244,0.2000122l0,0
			c0,0.2000122,0.0999756,0.3999939,0.2999878,0.3999939s0.4000244-0.1000061,0.4000244-0.2999878
			C339.4000244,188.0598145,339.2999878,187.8598328,339.1000366,187.7598267L339.1000366,187.7598267L339.1000366,187.7598267z
			 M308.4000244,184.6598206c-0.1000366-0.2000122-0.2999878-0.2000122-0.5-0.1000061s-0.2000122,0.2999878-0.1000366,0.5l0,0
			c0.1000366,0.2000122,0.2999878,0.2000122,0.5,0.1000061l0,0C308.4000244,185.0598145,308.5,184.8598328,308.4000244,184.6598206
			L308.4000244,184.6598206L308.4000244,184.6598206z M315.9000244,180.3598328
			c-0.1000366-0.2000122-0.2999878-0.2000122-0.5-0.1000061s-0.2000122,0.2999878-0.1000366,0.5
			c0.1000366,0.2000122,0.2999878,0.2000122,0.5,0.1000061C315.9000244,180.7598267,316,180.5598145,315.9000244,180.3598328
			L315.9000244,180.3598328L315.9000244,180.3598328z M359.7999878,190.4598389
			c0-0.1000061-0.2000122-0.2000122-0.2999878-0.1000061c-0.0999756,0-0.2000122,0.2000122-0.0999756,0.2999878
			s0.2000122,0.2000122,0.2999878,0.1000061l0,0C359.7999878,190.6598206,359.9000244,190.5598145,359.7999878,190.4598389z
			 M338.2999878,188.7598267c-0.0999756-0.1000061-0.2000122,0-0.2999878,0.1000061s0,0.2000122,0.0999756,0.2999878
			s0.2000122,0,0.2999878-0.1000061l0,0C338.4000244,188.9598389,338.4000244,188.8598328,338.2999878,188.7598267
			L338.2999878,188.7598267L338.2999878,188.7598267z M340.5,184.1598206c-0.0999756-0.1000061-0.2000122,0-0.2999878,0.1000061l0,0
			c-0.0999756,0.1000061,0,0.2000122,0.0999756,0.2999878l0,0c0.0999756,0.1000061,0.2000122,0,0.2999878-0.1000061
			C340.7000122,184.3598328,340.7000122,184.2598267,340.5,184.1598206L340.5,184.1598206L340.5,184.1598206z
			 M349.4000244,189.1598206c0-0.1000061-0.0999756-0.2000122-0.2000122-0.2000122l0,0
			c-0.0999756,0-0.2000122,0.1000061-0.2000122,0.2000122l0,0c0,0.1000061,0.0999756,0.2000122,0.2000122,0.2000122
			C349.2999878,189.3598328,349.4000244,189.2598267,349.4000244,189.1598206L349.4000244,189.1598206z M331.7999878,180.3598328
			c-0.0999756-0.1000061-0.2000122-0.1000061-0.2999878,0l0,0c-0.0999756,0.1000061-0.0999756,0.2000122,0,0.2999878
			c0.0999756,0.1000061,0.2000122,0.1000061,0.2999878,0C331.7999878,180.5598145,331.7999878,180.4598389,331.7999878,180.3598328z
			 M361.1000366,196.5598145c0-0.1000061-0.0999756-0.2000122-0.2999878-0.2000122l0,0
			c-0.0999756,0-0.2000122,0.1000061-0.2000122,0.2999878l0,0c0,0.1000061,0.0999756,0.2000122,0.2999878,0.2000122l0,0
			C361,196.7598267,361.1000366,196.6598206,361.1000366,196.5598145L361.1000366,196.5598145z M360.2999878,190.7598267
			c0-0.1000061-0.0999756-0.2000122-0.2999878-0.2000122l0,0c-0.0999756,0-0.2000122,0.1000061-0.2000122,0.2999878
			c0,0.1000061,0.0999756,0.2000122,0.2999878,0.2000122l0,0
			C360.2000122,191.0598145,360.2999878,190.8598328,360.2999878,190.7598267L360.2999878,190.7598267L360.2999878,190.7598267z
			 M337.2999878,190.2598267c-0.0999756-0.1000061-0.2999878,0-0.2999878,0.1000061
			c-0.0999756,0.1000061-0.0999756,0.2999878,0,0.2999878c0.0999756,0.1000061,0.2000122,0.1000061,0.2999878,0l0,0
			C337.4000244,190.4598389,337.4000244,190.3598328,337.2999878,190.2598267L337.2999878,190.2598267L337.2999878,190.2598267z
			 M340.7999878,185.5598145c-0.0999756-0.1000061-0.2999878,0-0.2999878,0.1000061
			c-0.0999756,0.1000061-0.0999756,0.2999878,0,0.2999878c0.0999756,0.1000061,0.2999878,0.1000061,0.2999878,0l0,0
			C340.9000244,185.8598328,340.9000244,185.6598206,340.7999878,185.5598145L340.7999878,185.5598145z M371.5,189.4598389
			c-0.0999756-0.1000061-0.2000122-0.2000122-0.2999878-0.1000061l0,0
			c-0.0999756,0.1000061-0.2000122,0.2000122-0.0999756,0.2999878c0.0999756,0.1000061,0.2000122,0.2000122,0.2999878,0.1000061l0,0
			C371.5,189.7598267,371.5,189.5598145,371.5,189.4598389L371.5,189.4598389z M349.4000244,192.9598389
			c0-0.1000061,0-0.2999878-0.2000122-0.2999878l0,0l0,0c-0.0999756,0-0.2000122,0.1000061-0.2999878,0.2000122
			c0,0.1000061,0,0.2999878,0.2000122,0.2999878l0,0h0.0999756
			C349.2999878,193.1598206,349.4000244,193.0598145,349.4000244,192.9598389L349.4000244,192.9598389z M350.7000122,187.0598145
			c-0.0999756,0-0.2999878,0.1000061-0.2999878,0.2000122s0.0999756,0.2999878,0.2000122,0.2999878
			c0.0999756,0,0.2999878,0,0.2999878-0.2000122l0,0C350.9000244,187.1598206,350.9000244,187.0598145,350.7000122,187.0598145
			L350.7000122,187.0598145z M331.5,179.4598389c-0.0999756-0.1000061-0.2000122-0.1000061-0.2999878-0.1000061l0,0
			c-0.0999756,0.1000061-0.0999756,0.2000122-0.0999756,0.2999878c0.0999756,0.1000061,0.2000122,0.2000122,0.2999878,0.1000061l0,0
			C331.5,179.7598267,331.6000366,179.6598206,331.5,179.4598389L331.5,179.4598389z M374.7000122,187.3598328
			c-0.0999756-0.2000122-0.4000244-0.2999878-0.5999756-0.2000122c-0.2000122,0.1000061-0.2999878,0.3999939-0.2000122,0.6000061
			s0.4000244,0.2999878,0.5999756,0.2000122C374.7000122,187.8598328,374.7999878,187.5598145,374.7000122,187.3598328
			L374.7000122,187.3598328z M347.2999878,218.3598328c-0.2000122-0.1000061-0.5,0.1000061-0.5,0.2999878
			c-0.0999756,0.2000122,0.0999756,0.3999939,0.2999878,0.5s0.4000244-0.1000061,0.5-0.2999878
			C347.7000122,218.6598206,347.5,218.4598389,347.2999878,218.3598328z M350,208.7598267
			c-0.2000122-0.1000061-0.4000244,0.1000061-0.5,0.2999878c-0.0999756,0.2000122,0.0999756,0.3999939,0.2999878,0.5
			s0.4000244-0.1000061,0.5-0.2999878C350.4000244,209.0598145,350.2000122,208.7598267,350,208.7598267z M352.7000122,199.0598145
			c-0.2000122-0.1000061-0.4000244,0.1000061-0.5,0.2999878c-0.0999756,0.2000122,0.0999756,0.3999939,0.2999878,0.5l0,0
			c0.2000122,0.1000061,0.5-0.1000061,0.5-0.2999878C353.1000366,199.3598328,352.9000244,199.1598206,352.7000122,199.0598145
			L352.7000122,199.0598145z M355.4000244,189.4598389c-0.2000122-0.1000061-0.4000244,0.1000061-0.5,0.2999878l0,0
			c-0.0999756,0.2000122,0.0999756,0.3999939,0.2999878,0.5s0.4000244-0.1000061,0.5-0.2999878
			C355.7999878,189.7598267,355.6000366,189.5598145,355.4000244,189.4598389L355.4000244,189.4598389L355.4000244,189.4598389z
			 M314.5,192.5598145c-0.1000366-0.2000122-0.4000244-0.2999878-0.6000366-0.2000122
			c-0.2000122,0.1000061-0.2999878,0.3999939-0.2000122,0.6000061c0.1000366,0.2000122,0.4000244,0.2999878,0.6000366,0.2000122
			C314.5,192.9598389,314.5999756,192.7598267,314.5,192.5598145L314.5,192.5598145z M323.2000122,187.6598206
			c-0.0999756-0.2000122-0.4000244-0.2999878-0.6000366-0.2000122c-0.2000122,0.1000061-0.2999878,0.3999939-0.2000122,0.6000061
			s0.4000244,0.2999878,0.6000366,0.2000122C323.2000122,188.0598145,323.2999878,187.8598328,323.2000122,187.6598206
			L323.2000122,187.6598206z M331.9000244,182.7598267c-0.0999756-0.2000122-0.2999878-0.2999878-0.5-0.2000122l0,0
			c-0.2000122,0.1000061-0.2999878,0.3999939-0.2000122,0.6000061s0.4000244,0.2999878,0.5999756,0.2000122
			C331.9000244,183.2598267,332,182.9598389,331.9000244,182.7598267L331.9000244,182.7598267L331.9000244,182.7598267z
			 M366.5,195.8598328c0-0.2000122-0.2000122-0.3999939-0.5-0.3999939c-0.2000122,0-0.4000244,0.2000122-0.4000244,0.5
			c0,0.2000122,0.2000122,0.3999939,0.5,0.3999939C366.4000244,196.3598328,366.5,196.1598206,366.5,195.8598328z
			 M331.7999878,205.4598389c-0.2000122-0.1000061-0.4000244-0.1000061-0.5999756,0.1000061l0,0
			c-0.0999756,0.2000122-0.0999756,0.3999939,0.0999756,0.6000061c0.2000122,0.1000061,0.4000244,0.1000061,0.5999756-0.1000061
			C332,205.8598328,332,205.5598145,331.7999878,205.4598389L331.7999878,205.4598389L331.7999878,205.4598389z M338,197.5598145
			c-0.2000122-0.1000061-0.4000244-0.1000061-0.5999756,0.1000061l0,0
			c-0.0999756,0.2000122-0.0999756,0.3999939,0.0999756,0.6000061l0,0c0.2000122,0.1000061,0.4000244,0.1000061,0.5999756-0.1000061
			l0,0C338.2000122,197.9598389,338.2000122,197.7598267,338,197.5598145L338,197.5598145L338,197.5598145z
			 M344.1000366,189.7598267c-0.2000122-0.1000061-0.4000244-0.1000061-0.5999756,0.1000061
			c-0.0999756,0.2000122-0.0999756,0.3999939,0.0999756,0.6000061c0.2000122,0.1000061,0.4000244,0.1000061,0.5999756-0.1000061l0,0
			C344.4000244,190.1598206,344.2999878,189.8598328,344.1000366,189.7598267L344.1000366,189.7598267L344.1000366,189.7598267z
			 M372.1000366,191.2598267c0-0.2000122-0.2000122-0.3999939-0.4000244-0.2999878l0,0
			c-0.2000122,0-0.4000244,0.2000122-0.4000244,0.5c0,0.2000122,0.2999878,0.3999939,0.5,0.2999878
			C372,191.7598267,372.1000366,191.5598145,372.1000366,191.2598267L372.1000366,191.2598267L372.1000366,191.2598267z
			 M335.9000244,210.8598328c-0.2000122-0.1000061-0.4000244-0.1000061-0.5999756,0.1000061
			c-0.0999756,0.2000122-0.0999756,0.3999939,0.0999756,0.6000061c0.2000122,0.1000061,0.4000244,0.1000061,0.5999756-0.1000061
			C336.2000122,211.2598267,336.1000366,211.0598145,335.9000244,210.8598328L335.9000244,210.8598328L335.9000244,210.8598328z
			 M341.7999878,202.8598328c-0.2000122-0.1000061-0.5-0.1000061-0.5999756,0.1000061s-0.0999756,0.3999939,0.0999756,0.6000061
			c0.2000122,0.1000061,0.4000244,0.1000061,0.5999756-0.1000061C342,203.2598267,341.9000244,202.9598389,341.7999878,202.8598328
			L341.7999878,202.8598328z M347.6000366,194.7598267c-0.2000122-0.1000061-0.4000244-0.1000061-0.5999756,0.1000061
			s-0.0999756,0.3999939,0.0999756,0.6000061c0.2000122,0.1000061,0.4000244,0.1000061,0.5999756-0.1000061
			C347.7999878,195.1598206,347.7999878,194.8598328,347.6000366,194.7598267L347.6000366,194.7598267z M353.4000244,186.6598206
			c-0.2000122-0.1000061-0.4000244-0.1000061-0.5999756,0.1000061l0,0
			c-0.0999756,0.2000122-0.0999756,0.3999939,0.0999756,0.6000061c0.2000122,0.1000061,0.4000244,0.1000061,0.5999756-0.1000061l0,0
			C353.6000366,187.0598145,353.6000366,186.7598267,353.4000244,186.6598206L353.4000244,186.6598206L353.4000244,186.6598206z
			 M361.4000244,195.1598206c-0.2000122,0-0.4000244,0.1000061-0.5,0.2999878
			c-0.0999756,0.2000122,0.0999756,0.3999939,0.2999878,0.5s0.4000244-0.1000061,0.5-0.2999878l0,0
			C361.7999878,195.4598389,361.7000122,195.2598267,361.4000244,195.1598206
			C361.5,195.1598206,361.5,195.1598206,361.4000244,195.1598206L361.4000244,195.1598206z M326,192.7598267
			c-0.0999756-0.2000122-0.4000244-0.2000122-0.5999756-0.1000061l0,0
			c-0.2000122,0.1000061-0.2999878,0.3999939-0.0999756,0.6000061c0.0999756,0.2000122,0.4000244,0.2999878,0.5999756,0.1000061
			C326.1000366,193.1598206,326.1000366,192.9598389,326,192.7598267L326,192.7598267L326,192.7598267z M334.5,187.4598389
			c-0.0999756-0.2000122-0.4000244-0.2000122-0.5999756-0.1000061l0,0
			c-0.2000122,0.1000061-0.2999878,0.3999939-0.0999756,0.6000061c0.0999756,0.2000122,0.4000244,0.2999878,0.5999756,0.1000061
			C334.6000366,187.9598389,334.6000366,187.6598206,334.5,187.4598389L334.5,187.4598389L334.5,187.4598389z M343,195.3598328
			c-0.0999756-0.1000061-0.2999878-0.1000061-0.4000244,0l0,0c-0.0999756,0.1000061-0.0999756,0.2999878,0,0.3999939
			s0.2999878,0.1000061,0.4000244,0S343.1000366,195.4598389,343,195.3598328z M348.6000366,190.2598267
			c-0.0999756-0.1000061-0.2999878-0.1000061-0.4000244,0l0,0c-0.0999756,0.1000061-0.0999756,0.2999878,0,0.3999939
			s0.2999878,0.1000061,0.4000244,0C348.7000122,190.5598145,348.7000122,190.3598328,348.6000366,190.2598267
			L348.6000366,190.2598267z M357.6000366,201.2598267c-0.2000122-0.1000061-0.2999878,0-0.4000244,0.1000061l0,0
			c-0.0999756,0.2000122,0,0.2999878,0.0999756,0.3999939c0.2000122,0.1000061,0.2999878,0,0.4000244-0.1000061
			C357.9000244,201.5598145,357.7999878,201.3598328,357.6000366,201.2598267
			C357.7000122,201.2598267,357.6000366,201.2598267,357.6000366,201.2598267z M360.7999878,194.4598389
			c-0.0999756-0.1000061-0.2999878,0-0.4000244,0.1000061l0,0c-0.0999756,0.2000122,0,0.2999878,0.0999756,0.3999939l0,0
			c0.2000122,0.1000061,0.2999878,0,0.4000244-0.2000122C361.1000366,194.7598267,361,194.5598145,360.7999878,194.4598389
			L360.7999878,194.4598389L360.7999878,194.4598389z M364.1000366,187.6598206
			c-0.2000122-0.1000061-0.2999878,0-0.4000244,0.2000122c-0.0999756,0.1000061,0,0.2999878,0.0999756,0.3999939l0,0
			c0.0999756,0.1000061,0.2999878,0,0.4000244-0.1000061l0,0
			C364.2999878,187.9598389,364.2000122,187.7598267,364.1000366,187.6598206L364.1000366,187.6598206z M366.2999878,187.1598206
			c-0.0999756-0.1000061-0.2000122,0-0.2000122,0c-0.0999756,0.1000061,0,0.2000122,0,0.2000122l0,0
			c0.0999756,0,0.2000122,0,0.2000122-0.1000061C366.4000244,187.3598328,366.4000244,187.2598267,366.2999878,187.1598206z
			 M359.2999878,191.0598145c-0.0999756-0.1000061-0.2000122-0.2000122-0.4000244-0.1000061l0,0
			c-0.0999756,0.1000061-0.2000122,0.2000122-0.0999756,0.2999878l0,0c0.0999756,0.1000061,0.2999878,0.2000122,0.4000244,0.1000061
			C359.4000244,191.3598328,359.4000244,191.1598206,359.2999878,191.0598145
			C359.4000244,191.0598145,359.2999878,191.0598145,359.2999878,191.0598145L359.2999878,191.0598145z M365,187.3598328
			c-0.0999756-0.1000061-0.2999878-0.2000122-0.4000244-0.1000061C364.5,187.3598328,364.3999634,187.4598389,364.5,187.6598206l0,0
			c0.0999756,0.1000061,0.2000122,0.2000122,0.4000244,0.1000061l0,0
			C365.1000366,187.6598206,365.1000366,187.4598389,365,187.3598328L365,187.3598328L365,187.3598328z"/>
		
			<linearGradient id="R_hand_1_" gradientUnits="userSpaceOnUse" x1="194.1150055" y1="271.9098511" x2="303.8800049" y2="271.9098511" gradientTransform="matrix(1 0 0 1 0 -166)">
			<stop  offset="0" style="stop-color:#FFBEB6"/>
			<stop  offset="1" style="stop-color:#F2A19C"/>
		</linearGradient>
		<path id="R_hand" class="st22" d="M303.9000244,134.4598236c-0.7999878,0-1.6000366,0-2.5,0
			c-7.2999878-0.3999939-21.9000244-3.3000031-36.5-7.5999985c-6.7999878-2-13.6000214-4.1999969-19.6000214-6.6000061
			c-0.7000122-0.3000031-1.3999939-0.6000061-2.2000122-0.8999939c-2.5-1.1000061-5-2-7.6000061-2.6999969
			c-1.5-0.3999939-2.8999939-0.6999969-4.2000122-1c-1.5-0.3000031-3.1000061-0.5-4.7000122-0.6000061
			c-0.7000122-0.1000061-1.2999878-0.1000061-2-0.1000061c-15.7000122-2.5-23.2000122-7.6999969-26.8999939-14.5
			c-0.1000061-0.1000061-0.1000061-0.1999969-0.2000122-0.3000031c-0.1000061-0.1999969-0.2000122-0.5-0.3999939-0.6999969
			c-2.3999939-4.8999939-3.5-10.3999939-3-15.8000031c0.2999878-2.8000031,1-4.8999939,1.8999939-5.6000061
			c0.2000122-0.1999969,0.3999939-0.3000031,0.6000061-0.3999939c0.8999939-0.1000061,1.7999878,0.1999969,2.5,0.6999969l0,0
			c0.1000061,0.1000061,0.2000122,0.1000061,0.2999878,0.1999969c5,3,13,12.6000061,16.8999939,14.6999969l0.1000061,0.1000061
			c3.5,1.8000031,2.6000061-0.8000031,0-5.1000061c-0.7999878-1.3000031-1.7999878-2.8000031-2.7999878-4.3000031
			c-4.3999939-6.3999939-3.3999939-11,8.1000061,0.1999969c0.5,0.5,1,1,1.5,1.5
			c0.8999939,0.8999939,1.7999878,1.8000031,2.7000122,2.6000061l0.1000061,0.1000061
			c2,2.1999969,4.3999939,4.8000031,6.2000122,7.1999969c4.2000122,5.3999939,13.7000122,7.5,17.6000061,8.3000031l0,0
			c11.6000214,2.5,28.2999725,1.3000031,28.2999725,1.3000031s7-0.1999969,14.5-0.6999969l9.7000122,26.2999954
			L303.9000244,134.4598236z"/>
		
			<linearGradient id="back_1_" gradientUnits="userSpaceOnUse" x1="179.4662628" y1="169.4363251" x2="203.7474823" y2="273.1234436" gradientTransform="matrix(1 0 0 1 0 -166)">
			<stop  offset="0.122" style="stop-color:#E94A47"/>
			<stop  offset="1" style="stop-color:#C63030"/>
		</linearGradient>
		<polygon id="back" class="st23" points="236.0999908,128.1598206 195.9999847,153.9598389 168.9999847,75.8598404 
			209.0999908,50.0598373 		"/>
		<polygon id="cover" class="st24" points="250.9999847,153.6598206 196.1999969,153.6598206 169.1999969,75.5598373 
			223.9999847,75.5598373 		"/>
		
			<linearGradient id="L_hand_1_" gradientUnits="userSpaceOnUse" x1="181.6116333" y1="306.4051208" x2="282.8999634" y2="306.4051208" gradientTransform="matrix(1 0 0 1 0 -166)">
			<stop  offset="0" style="stop-color:#FFBEB6"/>
			<stop  offset="1" style="stop-color:#F2A19C"/>
		</linearGradient>
		<path id="L_hand" class="st25" d="M282.0999756,172.3598328l0.7999878,4.1000061
			c-0.7999878-0.1000061-1.5999756-0.2000122-2.3999634-0.3999939c-7.1000366-1.5-21.2000122-6.6000061-35.0000153-13
			c-7-3.2000122-13.7999878-6.7999878-20.3999939-10.7000122c-2.2999878-1.3999939-4.7000122-2.7000122-7.1000061-3.7999878
			c-3.2999878-1.5-6.8999939-2.6000061-10.5-3.3000031c-23.5-7.5-26.5-18.1999893-25.7999878-31.2999954
			c0.7999878-13.6000061,4.6000061-10.5,11.3999939-4.5s14.7000122,12.5,19.3999939,12.1999969
			c4.7000122-0.3000031,2.1000061-7.8000031,5.2999878-13.1000061c3.2000122-5.3000031,6.1000061-2.8999939,5.6000061-0.1999969
			c-0.8999939,5.8999939-1.2000122,11.8000031-0.8999939,17.6999969c0.3999939,6.3999863,0.5,7.5999985,11.6000061,11.7999954
			s27.7999725,5.5,27.7999725,5.5s7,0.8000031,14.4000244,1.5L282.0999756,172.3598328z"/>
		
			<linearGradient id="R_sleeve_1_" gradientUnits="userSpaceOnUse" x1="280.3215332" y1="226.9886017" x2="335.584198" y2="316.7905884" gradientTransform="matrix(1 0 0 1 0 -166)">
			<stop  offset="0" style="stop-color:#23286B"/>
			<stop  offset="0.432" style="stop-color:#1D225F"/>
			<stop  offset="1" style="stop-color:#151A4F"/>
		</linearGradient>
		<path id="R_sleeve" class="st26" d="M313.7999878,71.6598282c0,0,8,33.1000061-41.3999634,33.5l6,39.1999893
			c0,0,18.5999756,10.4999847,30.0999756-2.5s37.2000122,1.5,42.7000122-21.0999985s-2.9000244-43.8000031-23.5-60.8000031l0,0
			L313.7999878,71.6598282"/>
		
			<linearGradient id="sweater_1_" gradientUnits="userSpaceOnUse" x1="372.1685486" y1="259.4502869" x2="307.872406" y2="371.5697937" gradientTransform="matrix(1 0 0 1 0 -166)">
			<stop  offset="0" style="stop-color:#23286B"/>
			<stop  offset="1" style="stop-color:#151A4F"/>
		</linearGradient>
		<path id="sweater" class="st27" d="M327.7000122,59.8598404c0,0,56.2000122,37.6999969,63.2000122,124.5999985
			c0,0-54.7000122,15.6000061-87.9000244-29.1000061c0,0,20.6000366-41.0999985,10.7999878-83.7999954l0,0L327.7000122,59.8598404"
			/>
		<path id="L_sleeve" class="st28" d="M313.7999878,71.6598282c0,0,2.9000244,28.8000031-3.5,47.8000031
			c-6.3999634,18.9999924-34.7000122,20.9999924-34.7000122,20.9999924l8.5,46.4000092
			c0,0,16.2000122,5.2000122,24.6000366-2.7999878c8.3999634-8,14.4000244-12.2000122,22.9000244-12.6000061
			s27.0999756-11.7000122,24.2999878-38.3000031s-7.0999756-50.7999954-28.2000122-73.2999954l0,0L313.7999878,71.6598282"/>
		
			<linearGradient id="neck_1_" gradientUnits="userSpaceOnUse" x1="327.4931335" y1="247.598587" x2="316.1854248" y2="221.1220856" gradientTransform="matrix(1 0 0 1 0 -166)">
			<stop  offset="0" style="stop-color:#FFBEB6"/>
			<stop  offset="1" style="stop-color:#F2A19C"/>
		</linearGradient>
		<path id="neck" class="st29" d="M308.9000244,55.4598312c0,0,4.2999878,10.5,4.8999634,16.1999969
			c0,0,11.2000122-0.5,13.9000244-11.6999969l-10.6000366-12.8000031L308.9000244,55.4598312"/>
		<path id="face" class="st30" d="M318.9000244,50.7598343c-1.4000244,1.1000061-3.7000122,2.6000061-10,4.6999969
			c-14.4000244,4.8000031-20-7.8000031-20-7.8000031c-6.1000366,0.1999969-5-3.1999969-4.5-5.8000031
			c0.3999634-2.3000031,1.3999634-8.8999939,1.5999756-10.1999969c9.1000366,2,18-2.6999969,18-2.6999969
			s1,2.3999939,5.2999878,4.3999939c5.7000122,2.5,7.1000366-1.1000061,10.6000366,1
			c4.2999878,2.6000061,0.8999634,6.8000031-1.4000244,10.8000031
			C316.4000244,48.8598404,318.5999756,50.3598404,318.9000244,50.7598343z"/>
		
			<linearGradient id="eyeglasses_1_" gradientUnits="userSpaceOnUse" x1="240.1714325" y1="331.219574" x2="259.8219604" y2="331.219574" gradientTransform="matrix(0.8808 -0.3718 0.3566 0.9848 -50.617012 -196.0714722)">
			<stop  offset="0.1291" style="stop-color:#428DFC"/>
			<stop  offset="0.9987" style="stop-color:#1D72D8"/>
		</linearGradient>
		<path id="eyeglasses" class="st31" d="M283,40.3598404c0.2000122-0.1000061,0.3999634-0.1999969,0.5999756-0.3000031
			c1.2999878-1.1000061,1.9000244-2.8000031,1.6000366-4.3999939c1.2000122-0.3000031,2.5,0.6000061,3.5,1.3000031
			c-0.1000366,1.1000061,0.0999756,2.1999969,0.3999634,3.3000031c0.5,1.5,1.4000244,2.6999969,2.6000366,3.6000061
			c1,0.8000031,2.3999634,1,3.5999756,0.5c0.2000122-0.1000061,0.5-0.1999969,0.7000122-0.3999939
			c0.7999878-0.6000061,1.4000244-1.6000061,1.7000122-2.6000061c0.4000244-1.5,0.2999878-3.1000061-0.2000122-4.6000061
			c-1.0999756-3.1999969-3.8999634-5.1000061-6.2000122-4.1000061c-1.2000122,0.6000061-2.0999756,1.6999969-2.3999634,3
			c0,0.1999969-0.1000366,0.3000031-0.1000366,0.5c-1-0.8999939-2.2999878-1.3999939-3.7000122-1.3000031
			c-0.0999756-0.3000031-0.2000122-0.6999969-0.2999878-1c-1-2.8000031-3.3999634-4.3999939-5.3999634-3.6000061l0,0
			c-2,0.8000031-2.7999878,3.6999969-1.9000244,6.5C278.5999756,39.5598373,281,41.1598282,283,40.3598404z M289.7999878,39.9598312
			c-0.5-1.3000031-0.5999756-2.6999969-0.2000122-4.1000061c0.2000122-0.8999939,0.7000122-1.6000061,1.4000244-2.1999969
			c0.2000122-0.1000061,0.3999634-0.1999969,0.5999756-0.3000031c2-0.8000031,4.2999878,0.8999939,5.2999878,3.6999969
			c0.5,1.3000031,0.6000366,2.6999969,0.2000122,4.1000061c-0.2000122,1.1000061-1,2-2,2.5c-1,0.3999939-2.0999756,0.1999969-3-0.5
			C291,42.3598404,290.2000122,41.2598343,289.7999878,39.9598312z M278.2999878,36.5598373
			c-0.7999878-2.3999939-0.2000122-4.8000031,1.5-5.5c1.6000366-0.6999969,3.6000366,0.6999969,4.5,3.1000061
			c0.7999878,2.3999939,0.2000122,4.8000031-1.5,5.5S279.0999756,38.9598312,278.2999878,36.5598373z"/>
		<path id="hair" class="st28" d="M331.7000122,20.9598312c0,0-1.4000244-17.8000031-10.1000366-20.4000015
			c-8.6999512-2.5999985-14.2999878,4.6999969-14.2999878,4.6999969s-9.8999634-7.5-17.5999756-2.3000031
			S285,17.7598267,285,17.7598267c-8.7000122-6.3000031-18.1000366,0.9000015-7,10.0999985
			c1.0999756,0.8999939,2.2999878,1.6999969,3.5999756,2.3000031c-5.2999878-1.6000061-9.5-5.6000061-10-12.0999985
			c0-0.5-0.7999878-0.5-0.7999878,0c0.7000122,8.5999985,7.5,13.0999985,15,13.5999985
			C295,33.7598343,304,28.9598312,304,28.9598312s1,2.5,5.2999878,4.3999939c5.7000122,2.5,7.1000366-1.1000061,10.6000366,1
			c4.2999878,2.6000061,1.2999878,7-1.7000122,9.1999969c-3.7000122,2.6999969,0.7000122,7.3000031,0.7000122,7.3000031
			C327.5,45.9598312,336.6000366,37.9598312,337.5,28.759819S331.7000122,20.9598312,331.7000122,20.9598312z"/>
	</g>
</g>
</svg>
