<svg id="Layer_1" data-name="Layer 1" xmlns="http://www.w3.org/2000/svg" viewBox="0 0 60 37.39"><defs><style>.cls-1{fill:#282345;}</style></defs><title>chess</title><path class="cls-1" d="M8.92,23.77a.63.63,0,0,0-.63.63v.46a.63.63,0,1,0,1.26,0V24.4a.63.63,0,0,0-.63-.63"/><path class="cls-1" d="M15.17,9h.43a.63.63,0,1,0,0-1.26h-.43a.63.63,0,1,0,0,1.26"/><path class="cls-1" d="M22.76,30.26H22l-.46-3a.63.63,0,0,0-.62-.53,1.34,1.34,0,0,1-1.34-1.34V16h1.24A2.13,2.13,0,0,0,23,13.88V12.66A2.12,2.12,0,0,0,21,10.55l.88-1.89A.62.62,0,0,0,22,8.4V.63A.63.63,0,0,0,21.35,0h-3.9a.63.63,0,0,0-.63.63v1.6h-2V.63A.63.63,0,0,0,14.15,0H10.24a.63.63,0,0,0-.63.63v1.6h-2V.63A.63.63,0,0,0,6.94,0H3A.63.63,0,0,0,2.4.63V8.4a.63.63,0,0,0,.06.26h0l.88,1.89a2.12,2.12,0,0,0-1.93,2.1v1.22A2.13,2.13,0,0,0,3.53,16H4.78v9.4a1.34,1.34,0,0,1-1.34,1.34.63.63,0,0,0-.62.53l-.46,3H1.88A1.69,1.69,0,0,0,.19,31.86L0,35.61a1.69,1.69,0,0,0,1.69,1.78H22.76a1.69,1.69,0,0,0,1.69-1.69V31.95a1.69,1.69,0,0,0-1.69-1.69M3.66,1.26H6.31v1.6a.63.63,0,0,0,.63.63h3.3a.63.63,0,0,0,.63-.63V1.26h2.64v1.6a.63.63,0,0,0,.63.63h3.3a.63.63,0,0,0,.63-.63V1.26h2.64v7l-1.06,2.28H4.72L4,9h9a.63.63,0,1,0,0-1.26H3.66ZM4,27.94A2.61,2.61,0,0,0,6,25.4V16H8.29v6a.63.63,0,0,0,1.26,0V16h8.8v9.4a2.61,2.61,0,0,0,2.05,2.54l.35,2.31H3.64Z"/><path class="cls-1" d="M50.39,30.74h-.62L49.36,28a.63.63,0,0,0-.62-.54,1.18,1.18,0,0,1-1.18-1.18V17.76H49.2a1.45,1.45,0,0,0,1.45-1.45V14.09a1.45,1.45,0,0,0-1.45-1.45h-2A7.93,7.93,0,0,0,48.7,8a8,8,0,1,0-16,0,7.93,7.93,0,0,0,1.49,4.64h-2a1.45,1.45,0,0,0-1.45,1.45v2.22a1.45,1.45,0,0,0,1.45,1.45h1.64v8.57a1.18,1.18,0,0,1-1.18,1.18A.63.63,0,0,0,32,28l-.41,2.69h-.39a1.6,1.6,0,0,0-1.6,1.52l-.18,3.44a1.61,1.61,0,0,0,1.6,1.69H50.39A1.61,1.61,0,0,0,52,35.78V32.34a1.61,1.61,0,0,0-1.61-1.61M34,8a6.74,6.74,0,1,1,11.63,4.64H35.81A6.68,6.68,0,0,1,34,8m-.74,20.71a2.45,2.45,0,0,0,1.89-2.38V17.76h2v5.48a.63.63,0,0,0,1.26,0V17.76h8v8.57a2.44,2.44,0,0,0,1.89,2.38l.31,2H32.91Z"/><path class="cls-1" d="M37.7,24.79a.63.63,0,0,0-.63.63v.43a.63.63,0,0,0,1.26,0v-.43a.63.63,0,0,0-.63-.63"/><path class="cls-1" d="M37.38,9.32a.63.63,0,0,0-1.17.46,4.76,4.76,0,0,0,.31.63.63.63,0,0,0,1.09-.63,3.45,3.45,0,0,1-.22-.46"/><path class="cls-1" d="M36.51,7.32a.64.64,0,0,0,.19,0,.63.63,0,0,0,.6-.44,3.56,3.56,0,0,1,3.4-2.48.63.63,0,1,0,0-1.26,4.82,4.82,0,0,0-4.6,3.36.63.63,0,0,0,.41.79"/></svg>