<?xml version="1.0" encoding="utf-8"?>
<!-- Generator: Adobe Illustrator 23.1.1, SVG Export Plug-In . SVG Version: 6.00 Build 0)  -->
<svg version="1.1" id="illustration" xmlns="http://www.w3.org/2000/svg" xmlns:xlink="http://www.w3.org/1999/xlink" x="0px"
	 y="0px" viewBox="0 0 539.0369873 471.3919678" style="enable-background:new 0 0 539.0369873 471.3919678;" xml:space="preserve">
<style type="text/css">
	.st0{fill:url(#R_hand_1_);}
	.st1{fill:url(#SVGID_1_);}
	.st2{fill:url(#SVGID_2_);}
	.st3{fill:url(#SVGID_3_);}
	.st4{fill:url(#SVGID_4_);}
	.st5{fill:url(#SVGID_5_);}
	.st6{fill:url(#SVGID_6_);}
	.st7{fill:url(#SVGID_7_);}
	.st8{fill:url(#SVGID_8_);}
	.st9{fill:url(#SVGID_9_);}
	.st10{fill:url(#R_sleeve_1_);}
	.st11{fill:#E94A47;}
	.st12{fill:#428DFC;}
	.st13{fill:url(#circle_1_);}
	.st14{fill:url(#square_1_);}
	.st15{fill:url(#R_shoe_1_);}
	.st16{fill:url(#R_trousers_1_);}
	.st17{fill:url(#L_trousers_1_);}
	.st18{fill:url(#neck_1_);}
	.st19{fill:#FFBEB6;}
	.st20{fill:url(#sweater_1_);}
	.st21{fill:url(#L_hand_1_);}
	.st22{fill:#A1C3FC;}
	.st23{fill:url(#hair_1_);}
	.st24{fill:#1C2868;}
	.st25{fill:#23286B;}
</style>
<title>uploading</title>
<g>
	
		<linearGradient id="R_hand_1_" gradientUnits="userSpaceOnUse" x1="441.7810974" y1="176.9402161" x2="457.2688904" y2="195.6834106" gradientTransform="matrix(1 0 0 1 0 -46)">
		<stop  offset="0" style="stop-color:#FFBEB6"/>
		<stop  offset="1" style="stop-color:#F2A19C"/>
	</linearGradient>
	<path id="R_hand" class="st0" d="M446.6719971,138.201004l-7.7589722,8.1990051
		c-1.2189941-7.4549866-4.3619995-14.4630127-9.1199951-20.3299866c-7.2399902-9.3299866-5.6099854-14.0299988-1.8900146-18.5499878
		c3.7199707-4.5299988,4.2999878-2.4899902,5.1199951,1.3099976c0.8300171,3.7999878,2.4699707,8.7399902,4.1699829,9.8200073
		c1.6900024,1.0799866,2.1900024-2.8099976,4.6500244-3.8500061c2.4500122-1.0400085,2.8499756,0.5700073,2.0100098,1.3599854
		c-1.7860107,1.822998-3.4000244,3.8089905-4.8200073,5.9299927c-1.4899902,2.3099976-1.75,2.7799988,1.0300293,7.0499878
		C442.0709839,132.2970123,444.2789917,135.3230133,446.6719971,138.201004z"/>
	<g id="geometry">
		<g id="ladder">
			
				<linearGradient id="SVGID_1_" gradientUnits="userSpaceOnUse" x1="398.5501709" y1="401.7285156" x2="430.1156006" y2="401.7285156" gradientTransform="matrix(1 0 0 1 0 -46)">
				<stop  offset="0.0898" style="stop-color:#EEEEEE"/>
				<stop  offset="0.8178" style="stop-color:#D6D7D8"/>
			</linearGradient>
			<polygon class="st1" points="401.8839722,471.3919678 423.8220215,243.0650177 430.1160278,243.0650177 430.1160278,240.0650177 
				421.0969849,240.0650177 398.8699951,471.3919678 			"/>
			
				<linearGradient id="SVGID_2_" gradientUnits="userSpaceOnUse" x1="426.6129761" y1="401.7285156" x2="539.2877808" y2="401.7285156" gradientTransform="matrix(1 0 0 1 0 -46)">
				<stop  offset="0.0898" style="stop-color:#EEEEEE"/>
				<stop  offset="0.8178" style="stop-color:#D6D7D8"/>
			</linearGradient>
			<polygon class="st2" points="459.7919922,471.3919678 430.0289917,243.0650177 496.0139771,243.0650177 535.9910278,471.3919678 
				539.0369873,471.3919678 498.7509766,241.306015 498.53302,240.0650177 426.6129761,240.0650177 456.7670288,471.3919678 			"/>
			<g>
				
					<linearGradient id="SVGID_3_" gradientUnits="userSpaceOnUse" x1="436.4290161" y1="339.6450195" x2="505.1290283" y2="339.6450195" gradientTransform="matrix(1 0 0 1 0 -46)">
					<stop  offset="0.0898" style="stop-color:#EEEEEE"/>
					<stop  offset="0.8178" style="stop-color:#D6D7D8"/>
				</linearGradient>
				<polygon class="st3" points="505.1290283,295.1450195 436.8189697,295.1450195 436.4290161,292.1450195 504.598999,292.1450195 
									"/>
				
					<linearGradient id="SVGID_4_" gradientUnits="userSpaceOnUse" x1="440.2189941" y1="368.7750244" x2="510.2290039" y2="368.7750244" gradientTransform="matrix(1 0 0 1 0 -46)">
					<stop  offset="0.0898" style="stop-color:#EEEEEE"/>
					<stop  offset="0.8178" style="stop-color:#D6D7D8"/>
				</linearGradient>
				<polygon class="st4" points="510.2290039,324.2750244 440.6090088,324.2750244 440.2189941,321.2750244 
					509.6989746,321.2750244 				"/>
				
					<linearGradient id="SVGID_5_" gradientUnits="userSpaceOnUse" x1="444.0289917" y1="398.0150146" x2="515.348999" y2="398.0150146" gradientTransform="matrix(1 0 0 1 0 -46)">
					<stop  offset="0.0898" style="stop-color:#EEEEEE"/>
					<stop  offset="0.8178" style="stop-color:#D6D7D8"/>
				</linearGradient>
				<polygon class="st5" points="515.348999,353.5150146 444.4290161,353.5150146 444.0289917,350.5150146 514.8189697,350.5150146 
									"/>
				
					<linearGradient id="SVGID_6_" gradientUnits="userSpaceOnUse" x1="447.8289795" y1="427.1449585" x2="520.4489746" y2="427.1449585" gradientTransform="matrix(1 0 0 1 0 -46)">
					<stop  offset="0.0898" style="stop-color:#EEEEEE"/>
					<stop  offset="0.8178" style="stop-color:#D6D7D8"/>
				</linearGradient>
				<polygon class="st6" points="520.4489746,382.6449585 448.2189941,382.6449585 447.8289795,379.6449585 
					519.9190063,379.6449585 				"/>
				
					<linearGradient id="SVGID_7_" gradientUnits="userSpaceOnUse" x1="432.4489746" y1="310.4349976" x2="500.0089722" y2="310.4349976" gradientTransform="matrix(1 0 0 1 0 -46)">
					<stop  offset="0.0898" style="stop-color:#EEEEEE"/>
					<stop  offset="0.8178" style="stop-color:#D6D7D8"/>
				</linearGradient>
				<polygon class="st7" points="500.0089722,265.9349976 432.8389893,265.9349976 432.4489746,262.9349976 
					499.4890137,262.9349976 				"/>
				
					<linearGradient id="SVGID_8_" gradientUnits="userSpaceOnUse" x1="451.6389771" y1="456.3949585" x2="525.5689697" y2="456.3949585" gradientTransform="matrix(1 0 0 1 0 -46)">
					<stop  offset="0.0898" style="stop-color:#EEEEEE"/>
					<stop  offset="0.8178" style="stop-color:#D6D7D8"/>
				</linearGradient>
				<polygon class="st8" points="525.5689697,411.8949585 452.0289917,411.8949585 451.6389771,408.8949585 
					525.0490112,408.8949585 				"/>
				
					<linearGradient id="SVGID_9_" gradientUnits="userSpaceOnUse" x1="455.4390259" y1="485.5249634" x2="530.6690063" y2="485.5249634" gradientTransform="matrix(1 0 0 1 0 -46)">
					<stop  offset="0.0898" style="stop-color:#EEEEEE"/>
					<stop  offset="0.8178" style="stop-color:#D6D7D8"/>
				</linearGradient>
				<polygon class="st9" points="530.6690063,441.0249634 455.8289795,441.0249634 455.4390259,438.0249634 
					530.1489868,438.0249634 				"/>
			</g>
		</g>
		
			<linearGradient id="R_sleeve_1_" gradientUnits="userSpaceOnUse" x1="460.2341003" y1="184.1607056" x2="456.8191833" y2="219.8284302" gradientTransform="matrix(1 0 0 1 0 -46)">
			<stop  offset="0" style="stop-color:#A1C3FC"/>
			<stop  offset="0.6955" style="stop-color:#81AEF2"/>
			<stop  offset="1" style="stop-color:#78A9EF"/>
		</linearGradient>
		<path id="R_sleeve" class="st10" d="M470.8619995,135.9380035c0,0,3.3280029,4.1440125-3.7399902,8.2120056
			s-8.9810181,3.2789917-14.098999-2.0020142s-5.9130249-6.7290039-5.9130249-6.7290039l-18.9489746,20.0690002
			c0,0,2.3410034,7.7219849,9.6599731,9.8410034s9.5239868,3.3439941,12.3619995,6.1940002
			s9.8579712,8.4819946,21.8330078,6.1929932c18.3359985-3.5050049,17.6690063-35.3450012,4.9819946-48.5l15.3610229-8.9240112"/>
		<polygon id="triangle" class="st11" points="439.3410034,0 270.5819702,88.2509918 449.6630249,190.4350128 		"/>
		<path id="half_a_circle" class="st12" d="M0,430.1049805c38.0740051,47.3729858,107.3430176,54.9119873,154.7160034,16.8380127
			c41.322998-33.2119751,53.0929871-91.164978,27.9989929-137.8659668L0,430.1049805z"/>
		
			<linearGradient id="circle_1_" gradientUnits="userSpaceOnUse" x1="337.0333252" y1="231.2808075" x2="289.2847595" y2="464.1469116" gradientTransform="matrix(1 0 0 1 0 -46)">
			<stop  offset="0.0898" style="stop-color:#EEEEEE"/>
			<stop  offset="0.8178" style="stop-color:#D6D7D8"/>
		</linearGradient>
		<circle id="circle" class="st13" cx="328.6679688" cy="226.0780182" r="85.2399902"/>
		
			<linearGradient id="square_1_" gradientUnits="userSpaceOnUse" x1="306.6672058" y1="378.0610046" x2="390.2597351" y2="603.0578003" gradientTransform="matrix(1 0 0 1 0 -46)">
			<stop  offset="0" style="stop-color:#23286B"/>
			<stop  offset="1" style="stop-color:#151A4F"/>
		</linearGradient>
		<rect id="square" x="248.7210083" y="311.3320312" class="st14" width="159.8950195" height="159.894989"/>
	</g>
	
		<linearGradient id="R_shoe_1_" gradientUnits="userSpaceOnUse" x1="446.2532043" y1="317.8208923" x2="472.8191223" y2="334.1112976" gradientTransform="matrix(1 0 0 1 0 -46)">
		<stop  offset="0.1291" style="stop-color:#428DFC"/>
		<stop  offset="0.9987" style="stop-color:#1D72D8"/>
	</linearGradient>
	<path id="R_shoe" class="st15" d="M484.6799927,272.6270142l6.9959717,19.5159912l-49.3909912,0.0020142
		c0,0,2.53302-4.8850098,10.9749756-8.5029907s16.3220215-11.0150146,16.3220215-11.0150146H484.6799927"/>
	<path id="L_shoe" class="st12" d="M501.0150146,300.6210327l7.4069824,20.6619873l-52.2910156,0.0020142
		c0,0,2.6810303-5.1719971,11.6190186-9.0020142s17.2810059-11.6610107,17.2810059-11.6610107L501.0150146,300.6210327"/>
	
		<linearGradient id="R_trousers_1_" gradientUnits="userSpaceOnUse" x1="413.2551575" y1="271.3157349" x2="462.5867004" y2="267.8129272" gradientTransform="matrix(1 0 0 1 0 -46)">
		<stop  offset="0" style="stop-color:#23286B"/>
		<stop  offset="1" style="stop-color:#151A4F"/>
	</linearGradient>
	<path id="R_trousers" class="st16" d="M462.9069824,169.5059967c0,0-7.3239746,21.8099976-11.2280273,32.2890015
		c-4.0050049,10.75-5.1129761,16.5650024,1.4509888,31.2120056c5.1799927,11.5589905,16.4539795,39.6209869,16.4539795,39.6209869
		h13.6929932c1.1879883-6.5750122,0.8280029-13.3369751-1.0529785-19.7489777
		c-3.1599731-10.006012-5.5300293-8.6900024-6.3200073-16.0620117s-8.9530029-12.3760071-3.6859741-24.4890137
		s14.0050049-10.2349854,22.6699829-43.5620117L462.9069824,169.5059967z"/>
	
		<linearGradient id="L_trousers_1_" gradientUnits="userSpaceOnUse" x1="458.6038208" y1="285.1824951" x2="501.0180054" y2="285.1824951" gradientTransform="matrix(1 0 0 1 0 -46)">
		<stop  offset="0" style="stop-color:#23286B"/>
		<stop  offset="1" style="stop-color:#151A4F"/>
	</linearGradient>
	<path id="L_trousers" class="st17" d="M501.0180054,300.6210327h-15.9860229c0,0-24.7540283-55.5920258-25.914978-66.8980255
		c-1.1500244-11.3009949-0.2280273-24.7749939,1.3889771-35.868988c0.1959839-1.3410034,1.2700195-18.0769958,1.4920044-19.3699951
		c4.5759888-0.3200073,9.1680298-0.3699951,13.75-0.151001c0.7919922,0.019989,9.3510132-0.0549927,11.6530151-0.2550049
		c2.3480225-0.0109863,4.5529785-0.1380005,6.5780029-0.3340149c-0.0319824,5.6080017-1.1339722,13.0920105-4.5800171,22.723999
		c-9.2440186,25.8670044-2.3060303,29.5610046,0.6939697,37.3899841c3.0050049,7.8179932,4.6220093,12.605011,3.9329834,19.9990082
		c-0.6939697,7.3939819,2.7670288,5.4329834,4.6220093,15.0009766
		C500.492981,282.4180298,501.0180054,300.6210327,501.0180054,300.6210327z"/>
	
		<linearGradient id="neck_1_" gradientUnits="userSpaceOnUse" x1="470.383728" y1="183.5910339" x2="472.5848389" y2="165.9816284" gradientTransform="matrix(1 0 0 1 0 -46)">
		<stop  offset="0" style="stop-color:#FFBEB6"/>
		<stop  offset="1" style="stop-color:#F2A19C"/>
	</linearGradient>
	<path id="neck" class="st18" d="M468.6569824,123.4960175c0.3369751,4.2409973-0.1040039,8.5079956-1.3010254,12.5899963
		c0,0,4.8519897-5.6099854,7.1749878-6.8880005l1.3629761-6.2390137l-7.3770142,0.1159973L468.6569824,123.4960175z"/>
	<path id="face" class="st19" d="M478.5189819,120.7150116c-1.3800049,0.269989-2.9199829,1.7399902-3.7299805,3.8200073
		c-0.9699707,0.019989-1.6400146-0.0100098-1.6400146-0.0100098c-14.289978-1.3599854-11.0599976-14.3399963-11.0599976-14.3399963
		c-1.2700195-3.1000061-1.1900024-3.8500061,2.3599854-3.9100037c2.6500244-0.0400085,7.0700073-3.6600037,7.0700073-3.6600037
		c0.1019897-0.0859985,0.21698-0.1570129,0.3400269-0.2099915c0.0780029,2.946991,0.6699829,5.8569946,1.75,8.6000061
		c2.0499878,5.0100098,3.1699829,5.519989,5.0100098,5.4200134
		C480.4589844,116.3150177,481.6790161,120.1049957,478.5189819,120.7150116z"/>
	
		<linearGradient id="sweater_1_" gradientUnits="userSpaceOnUse" x1="488.9710693" y1="205.4454346" x2="442.3635254" y2="218.4755554" gradientTransform="matrix(1 0 0 1 0 -46)">
		<stop  offset="0" style="stop-color:#A1C3FC"/>
		<stop  offset="0.6955" style="stop-color:#81AEF2"/>
		<stop  offset="1" style="stop-color:#78A9EF"/>
	</linearGradient>
	<path id="sweater" class="st20" d="M499.309021,192.3950043c0,0-18.2700195,8.6300049-42-17.480011l10.0599976-38.8500061
		c0.289978-0.3299866,4.9099731-5.6300049,7.1599731-6.8699951l0.0800171-0.3500061
		c0.6799927-0.6000061,1.3900146-1.25,2.1300049-1.9299927c6.2139893,5.0230103,11.3120117,11.2860107,14.9699707,18.3900146
		c6.2199707,11.9599915,4.0200195,16.0100098,7.3499756,23.0299988S507.098999,184.0449982,499.309021,192.3950043z"/>
	
		<linearGradient id="L_hand_1_" gradientUnits="userSpaceOnUse" x1="430.4076843" y1="179.7059326" x2="445.8955383" y2="198.4492188" gradientTransform="matrix(1 0 0 1 0 -46)">
		<stop  offset="0" style="stop-color:#FFBEB6"/>
		<stop  offset="1" style="stop-color:#F2A19C"/>
	</linearGradient>
	<path id="L_hand" class="st21" d="M435.2979736,140.9659882l-7.7589722,8.1990051
		c-1.2189941-7.4549866-4.3619995-14.4630127-9.1199951-20.3299866c-7.2399902-9.3299866-5.6099854-14.0299988-1.8900146-18.5499878
		c3.7199707-4.5299988,4.2999878-2.4899902,5.1199951,1.3099976c0.8300171,3.7999878,2.4699707,8.7399902,4.1699829,9.8200073
		c1.6900024,1.0799866,2.1900024-2.8099976,4.6500244-3.8500061c2.4500122-1.0400085,2.8499756,0.5700073,2.0100098,1.3599854
		c-1.7860107,1.822998-3.4000244,3.8089905-4.8200073,5.9299927c-1.4899902,2.3099976-1.75,2.7799988,1.0300293,7.0499878
		C430.697998,135.0619965,432.9050293,138.0890045,435.2979736,140.9659882z"/>
	<path id="L_sleeve" class="st22" d="M461.809021,181.5449982c-11.9799805,2.2900085-19-3.3399963-21.8400269-6.1900024
		s-5.039978-4.0799866-12.3599854-6.2000122s-9.6599731-9.8399963-9.6599731-9.8399963l18.9500122-20.0700073
		c0,0,0.789978,1.4500122,5.9099731,6.730011s7.0300293,6.0700073,14.0999756,2
		c7.0700073-4.0599976,10.4500122-11.8900146,10.4500122-11.8900146c0.0009766-0.0079956,0.0040283-0.0150146,0.0100098-0.019989
		l0.039978-0.0400085l4.0900269-4.3800049c0.0150146-0.0079956,0.0289917-0.0180054,0.039978-0.0299988
		c0.9160156-0.9020081,1.9180298-1.7109985,2.992981-2.4159851l-0.1229858-0.6640015l6.4699707-6.9200134v0.2999878
		C493.559021,135.0749969,480.1389771,178.0449982,461.809021,181.5449982z"/>
	
		<linearGradient id="hair_1_" gradientUnits="userSpaceOnUse" x1="500.879364" y1="144.6889648" x2="482.1080017" y2="165.6687927" gradientTransform="matrix(1 0 0 1 0.0000152 -46)">
		<stop  offset="0" style="stop-color:#23286B"/>
		<stop  offset="1" style="stop-color:#151A4F"/>
	</linearGradient>
	<circle id="hair" class="st23" cx="494.447998" cy="105.8769989" r="6.681015"/>
	<path id="nouth" class="st24" d="M464.5640259,114.1970062c-1.197998,0.7650146-2.789978,0.4150085-3.5560303-0.7839966
		c-0.2769775-0.4339905-0.4180298-0.9410095-0.4039917-1.4559937c0.0079956-0.3919983,0.6209717-0.4530029,0.6129761-0.0559998
		c-0.0700073,1.0799866,0.7479858,2.0130005,1.8289795,2.0840149c0.4069824,0.0270081,0.8129883-0.0750122,1.1599731-0.2900085
		C464.5440063,113.4940033,464.9050293,113.9929962,464.5640259,114.1970062L464.5640259,114.1970062z"/>
	<path id="hair-2" class="st25" d="M505.6530151,134.6590118c-2.3359985-2.9070129-6.1820068-3.8999939-8.8959961-6.1960144
		c-0.6190186-0.5870056-1.1879883-1.223999-1.7020264-1.9039917c-0.0819702-0.1260071-0.1699829-0.2449951-0.2459717-0.3779907
		c-0.007019-0.0130005-0.0200195-0.0109863-0.0289917-0.0220032c-1.6359863-2.4710083-1.4869995-4.7650146-1.5490112-9.3280029
		c-0.03302-1.2829895-0.2650146-2.5539856-0.6879883-3.7659912c2.7839966,0.9719849,5.8759766,0.368988,8.0910034-1.5759888
		c0.2470093-0.2070007-0.1079712-0.5589905-0.3540039-0.3540039c-2.1870117,1.9169922-5.2730103,2.427002-7.9609985,1.3150024
		c-3.2059937-8.2030029-11.7890015-12.9700012-20.4470215-11.3569946c-0.0949707,3.3869934,0.4959717,6.7590027,1.7369995,9.9119873
		c2.0440063,5.0069885,3.1680298,5.5180054,5.007019,5.4159851s3.065979,3.6789856-0.1019897,4.2919922
		c-2.0510254,0.3970032-4.440979,3.4500122-4.2930298,7.2170105c-0.007019,0.1759949-0.0269775,0.3450012-0.0239868,0.5249939
		c0.1199951,5.9970093,8.6799927,12.8240051,2.473999,18.1870117c-0.2440186,0.2109985,0.1110229,0.5629883,0.3540039,0.3540039
		c1.9619751-1.6359863,2.8010254-4.2600098,2.1519775-6.7309875c-0.5609741-2.1960144-1.3720093-4.3200073-2.4160156-6.3309937
		c0.1370239,0.1579895,0.2750244,0.3160095,0.4240112,0.4729919c3.3959961,3.45401,4.401001,8.6019897,2.5549927,13.0799866
		c0,0,15.6350098,4.4960022,26.1610107-2.5549927c0,0,3.065979-6.7449951-5.007019-12.9779968
		c-0.7150269-0.552002-1.3400269-1.0539856-1.927002-1.5369873c0.9349976,0.5079956,1.9060059,1.0010071,2.8619995,1.5979919
		c4.1900024,2.5799866,6.6069946,7.2680054,6.2769775,12.177002c-0.0159912,0.321991,0.4840088,0.3210144,0.5,0
		C508.84198,140.7590179,507.7890015,137.3589935,505.6530151,134.6590118z"/>
</g>
</svg>
